<?xml version="1.0" encoding="UTF-8"?>
<svg version="1.1" xmlns="http://www.w3.org/2000/svg" width="500" height="500">
<path d="M0 0 C0.93890646 -0.0045988 1.87781292 -0.00919759 2.84517109 -0.01393574 C4.39520134 -0.0062204 4.39520134 -0.0062204 5.97654533 0.00165081 C7.07279508 -0.00076361 8.16904482 -0.00317802 9.29851425 -0.0056656 C12.99055718 -0.01132427 16.68242874 -0.00262309 20.37446404 0.00596905 C23.01364911 0.00489671 25.65282287 0.00303919 28.29200554 0.00021648 C34.72692152 -0.00482963 41.16178619 0.00082101 47.5966958 0.01006678 C55.08405418 0.0204391 62.57140141 0.02038092 70.05876563 0.01989421 C83.41303273 0.01939337 96.76727589 0.02856146 110.12153435 0.04307842 C123.09289295 0.05717193 136.06423048 0.06424897 149.03559685 0.06358624 C149.83475809 0.06354628 150.63391933 0.06350632 151.45729758 0.06346516 C152.25505035 0.0634248 153.05280313 0.06338445 153.87473023 0.06334287 C168.62550394 0.06265383 183.37626867 0.06853775 198.12703947 0.07749609 C203.35191091 0.08051784 208.5767807 0.08157628 213.80165291 0.08202839 C220.16335472 0.08270906 226.52504139 0.08715335 232.88673677 0.0963612 C236.13541549 0.1009921 239.38407078 0.10349086 242.63275337 0.10276699 C246.14646337 0.10228013 249.66010978 0.10789391 253.17381096 0.1151762 C254.73053337 0.1128533 254.73053337 0.1128533 256.31870472 0.11048347 C257.25239569 0.11370791 258.18608666 0.11693236 259.14807129 0.12025452 C260.36624296 0.12131115 260.36624296 0.12131115 261.60902417 0.12238914 C263.4481945 0.24888897 263.4481945 0.24888897 264.4481945 1.24888897 C264.73977783 7.3721388 264.26646576 13.25939436 263.534132 19.33482647 C262.35618045 29.5155007 261.60555132 39.71480255 260.8856945 49.93638897 C260.69713905 52.59673934 260.50750066 55.25699471 260.31490898 57.91705608 C260.19670644 59.55082381 260.08076786 61.18475765 259.96758842 62.81888103 C259.64201279 67.33293159 259.11376057 71.76938181 258.4481945 76.24888897 C258.27782271 78.80987453 258.13373181 81.37269331 258.0106945 83.93638897 C257.69257783 90.02640892 257.19991523 96.07572761 256.5575695 102.13951397 C255.73723943 110.11900238 255.01025952 118.10352338 254.33491325 126.09654522 C254.19120041 127.79596264 254.19120041 127.79596264 254.04458427 129.52971172 C253.84468979 131.89833337 253.64504393 134.266976 253.44563103 136.63563824 C251.50662256 159.63167535 249.40535016 182.60529834 247.06025505 205.56358624 C246.12253204 214.8127651 245.27318874 224.03934358 244.77975273 233.32353497 C244.4100537 240.2554574 243.82147892 247.15428958 243.1356945 254.06138897 C243.03063591 255.28664288 242.92557732 256.51189678 242.81733513 257.77427959 C242.69938591 258.947971 242.58143669 260.12166241 242.45991325 261.33092022 C242.36154167 262.37481915 242.26317009 263.41871807 242.16181755 264.4942503 C241.28305049 267.88635729 240.21392021 269.1274245 237.4481945 271.24888897 C235.00410271 272.23448467 235.00410271 272.23448467 232.24897575 272.92467022 C230.7017382 273.32492413 230.7017382 273.32492413 229.12324333 273.73326397 C228.01360222 274.00654522 226.90396111 274.27982647 225.7606945 274.56138897 C223.39580383 275.17087477 221.03122781 275.78158258 218.6669445 276.39342022 C216.86096794 276.85482403 216.86096794 276.85482403 215.018507 277.32554913 C209.58003934 278.73202374 204.16907008 280.23136969 198.7606945 281.74888897 C197.72839714 282.03739727 196.69609978 282.32590557 195.63252068 282.62315655 C188.7458787 284.56227145 181.90633604 286.63011753 175.0731945 288.74888897 C166.51000457 291.3807842 157.91124532 293.85707456 149.2606945 296.18638897 C148.16257439 296.49318584 147.06445427 296.79998272 145.93305779 297.11607647 C132.50281684 300.65668365 121.51142574 298.95480842 108.3856945 295.37388897 C106.85070503 294.96686471 105.31546155 294.56079735 103.77998161 294.15562725 C91.51943144 290.89829068 79.32798374 287.39440442 67.14594841 283.85655499 C56.59827829 280.80325855 46.00819534 278.03892204 35.32539177 275.49254131 C28.80094438 273.92126053 22.48105942 272.26532143 16.4481945 269.24888897 C13.81577496 257.42603183 13.54745671 244.78641298 12.58833122 232.74376202 C12.32448064 229.45243257 12.04875244 226.1622373 11.77241325 222.87193584 C10.97829922 213.16014572 10.2834679 203.48555195 10.268507 193.73717022 C10.26720787 192.98388943 10.26590874 192.23060863 10.26457024 191.45450115 C10.31402792 186.38305555 10.31402792 186.38305555 11.4481945 185.24888897 C13.10010846 185.15020388 14.75622668 185.1209006 16.41108513 185.11949444 C17.99778008 185.1147662 17.99778008 185.1147662 19.61652946 185.10994244 C21.34304741 185.11297878 21.34304741 185.11297878 23.1044445 185.11607647 C24.86335014 185.11464138 24.86335014 185.11464138 26.65778923 185.1131773 C29.14277513 185.11249527 31.62776279 185.11435113 34.11274529 185.11851788 C37.93163338 185.12386578 41.75040385 185.11857361 45.56928825 185.11217022 C47.9768406 185.112831 50.38439287 185.11411215 52.7919445 185.11607647 C54.51846245 185.11304012 54.51846245 185.11304012 56.27985954 185.10994244 C57.33765617 185.1130946 58.3954528 185.11624676 59.48530388 185.11949444 C60.88975761 185.12068783 60.88975761 185.12068783 62.32258415 185.12190533 C64.4481945 185.24888897 64.4481945 185.24888897 65.4481945 186.24888897 C65.81670282 188.60548415 66.1210552 190.94230125 66.3856945 193.31138897 C66.5121032 194.40954937 66.5121032 194.40954937 66.6410656 195.52989483 C67.81436526 206.0798324 68.6170822 216.6675733 69.4481945 227.24888897 C70.469132 227.45642803 71.4900695 227.66396709 72.5419445 227.87779522 C81.69341409 229.79653086 90.66911193 232.09427139 99.6356945 234.74888897 C100.6585656 235.05133526 101.68143669 235.35378155 102.73530388 235.66539288 C104.72620073 236.25530009 106.71692959 236.84577462 108.70747185 237.43687725 C112.4477689 238.54503937 116.19045424 239.63885352 119.9481945 240.68638897 C121.031007 240.99447491 122.1138195 241.30256084 123.2294445 241.61998272 C131.44829276 243.22584991 137.7272518 241.57909494 145.5731945 239.12388897 C147.69511638 238.48299473 149.8175249 237.84370984 151.940382 237.20592022 C153.01513786 236.88059307 154.08989372 236.55526592 155.19721794 236.22008038 C160.3455327 234.68208127 165.51753064 233.23600626 170.6981945 231.81138897 C171.62003532 231.55277081 172.54187614 231.29415264 173.49165154 231.02769756 C174.34871696 230.79260479 175.20578239 230.55751202 176.0888195 230.31529522 C177.21078728 230.00507427 177.21078728 230.00507427 178.35542107 229.68858624 C180.4481945 229.24888897 180.4481945 229.24888897 184.4481945 229.24888897 C184.7781945 228.58888897 185.1081945 227.92888897 185.4481945 227.24888897 C188.0106945 226.62388897 188.0106945 226.62388897 190.4481945 226.24888897 C192.85932732 209.78136482 194.40814235 193.21861661 195.10664177 176.58970928 C195.15389397 175.51221416 195.15389397 175.51221416 195.20210075 174.41295147 C195.23799309 173.49183575 195.23799309 173.49183575 195.27461052 172.55211163 C195.53438403 169.10527159 196.01945416 165.67881174 196.4481945 162.24888897 C102.8931945 161.75388897 102.8931945 161.75388897 7.4481945 161.24888897 C5.15574142 156.6639828 5.53914712 150.65324397 5.09101677 145.56041241 C4.8913394 143.31243935 4.67904656 141.06591916 4.46577263 138.81920147 C4.33282195 137.33750124 4.20064071 135.85573174 4.06928825 134.37388897 C3.97556183 133.40709209 3.97556183 133.40709209 3.87994194 132.42076397 C3.17326196 124.05405362 3.39754826 115.63769138 3.4481945 107.24888897 C23.3407261 107.11685898 43.23326754 106.98641518 63.12582111 106.85773754 C72.36731699 106.79792276 81.60880924 106.73762829 90.85029411 106.67613506 C170.54072713 106.14636298 170.54072713 106.14636298 202.4481945 106.24888897 C202.44352669 105.46321545 202.43885887 104.67754192 202.43404961 103.86806011 C202.41491335 98.32788939 202.44155673 92.83184911 202.85053825 87.30357647 C202.93626091 86.12408428 203.02198357 84.94459209 203.11030388 83.72935772 C203.20118279 82.53955303 203.29206169 81.34974834 203.3856945 80.12388897 C203.51621208 78.32758038 203.51621208 78.32758038 203.64936638 76.49498272 C204.14918416 69.73448447 204.73774623 62.99037691 205.4481945 56.24888897 C199.60280269 55.49625808 193.88783284 55.10875123 187.99659538 55.14882183 C187.19614068 55.1500841 186.39568597 55.15134638 185.57097507 55.1526469 C182.91575411 55.15798133 180.26061731 55.17049892 177.60542107 55.182971 C175.69104954 55.18816955 173.77667663 55.1928766 171.86230278 55.19713116 C167.75360406 55.20703959 163.64492866 55.21987637 159.53624535 55.2348547 C153.04000544 55.25798114 146.54376859 55.27123917 140.0474987 55.28254986 C121.57962418 55.31593553 103.11179564 55.35772556 84.64399529 55.42027569 C74.43401315 55.45477395 64.2240644 55.47859718 54.01403022 55.49048412 C47.55498681 55.49858769 41.09616214 55.51984487 34.63718939 55.55068898 C30.62390612 55.56667705 26.61068603 55.57010882 22.59737396 55.56991863 C20.73533591 55.57234336 18.87329641 55.57993463 17.01130295 55.59304714 C14.47128197 55.6101906 11.93191566 55.60886471 9.39185905 55.60292339 C8.65382742 55.61234404 7.91579579 55.62176468 7.15539956 55.6314708 C2.77658953 55.59716337 -0.14353568 55.07986378 -3.5518055 52.24888897 C-4.16449707 49.41404738 -4.45719638 47.10470579 -4.5518055 44.24888897 C-4.6134388 43.18976299 -4.6134388 43.18976299 -4.67631721 42.10924053 C-4.80236615 39.86465827 -4.89722429 37.62010514 -4.9893055 35.37388897 C-5.33133638 27.91421752 -5.97849197 20.53546236 -6.89140511 13.12437725 C-7.87639028 5.04134851 -7.87639028 5.04134851 -7.5518055 2.24888897 C-4.37799891 0.13301791 -3.62766306 -0.00097058 0 0 Z " fill="#FDFEFE" transform="translate(119.55180549621582,105.75111103057861)"/>
<path d="M0 0 C62.7 0 125.4 0 190 0 C189.67 6.93 189.34 13.86 189 21 C188.34 21.33 187.68 21.66 187 22 C186.97250132 20.16675453 186.95338327 18.3333829 186.9375 16.5 C186.92589844 15.4790625 186.91429687 14.458125 186.90234375 13.40625 C187.01180703 9.58817095 187.52623099 5.79015207 188 2 C125.96 1.67 63.92 1.34 0 1 C0 0.67 0 0.34 0 0 Z " fill="#EEEEEE" transform="translate(128,266)"/>
<path d="M0 0 C7.38728102 -0.02526692 14.77455098 -0.0428316 22.16186523 -0.05493164 C24.67716895 -0.05997363 27.19246972 -0.06680703 29.70776367 -0.07543945 C33.31429775 -0.08751094 36.92079323 -0.09322949 40.52734375 -0.09765625 C42.22575661 -0.10539818 42.22575661 -0.10539818 43.95848083 -0.11329651 C45.51998619 -0.11340981 45.51998619 -0.11340981 47.11303711 -0.11352539 C48.03459091 -0.115746 48.95614471 -0.11796661 49.90562439 -0.12025452 C52 0 52 0 53 1 C53.23527773 3.34987262 53.41386417 5.70556039 53.5625 8.0625 C53.64628906 9.35285156 53.73007813 10.64320313 53.81640625 11.97265625 C53.87699219 12.97167969 53.93757813 13.97070312 54 15 C53.34 15 52.68 15 52 15 C51.67 10.71 51.34 6.42 51 2 C48.91558594 2.0103125 46.83117187 2.020625 44.68359375 2.03125 C35.47126639 2.04769668 26.26983671 1.77622937 17.0625 1.5 C15.39649011 1.45162516 13.73047449 1.40344703 12.06445312 1.35546875 C8.04289943 1.23923725 4.02143165 1.12037722 0 1 C0 0.67 0 0.34 0 0 Z " fill="#EFEFEF" transform="translate(132,291)"/>
<path d="M0 0 C0.33 0 0.66 0 1 0 C1.23737365 8.91469911 0.79362465 17.25607982 -1 26 C-1.99 26.33 -2.98 26.66 -4 27 C-3.87882812 26.3915625 -3.75765625 25.783125 -3.6328125 25.15625 C-2.03768833 16.81252355 -0.99443409 8.43153162 0 0 Z " fill="#EFEFEF" transform="translate(313,308)"/>
<path d="M0 0 C1.32 0.66 2.64 1.32 4 2 C-1.673142 4.45417612 -6.81839396 6.46246904 -13 7 C-13 6.34 -13 5.68 -13 5 C-11.58603098 4.49242138 -10.16868271 3.99425075 -8.75 3.5 C-7.96109375 3.2215625 -7.1721875 2.943125 -6.359375 2.65625 C-4 2 -4 2 0 2 C0 1.34 0 0.68 0 0 Z " fill="#EDEDED" transform="translate(304,333)"/>
<path d="M0 0 C1.98 0 3.96 0 6 0 C6 2.97 6 5.94 6 9 C5.67 9 5.34 9 5 9 C4.87625 7.329375 4.87625 7.329375 4.75 5.625 C4.42126213 1.94246056 4.42126213 1.94246056 1.9375 0.5625 C1.298125 0.376875 0.65875 0.19125 0 0 Z " fill="#F3F3F3" transform="translate(312,266)"/>
<path d="" fill="#FFFFFF" transform="translate(0,0)"/>
<path d="" fill="#FFFFFF" transform="translate(0,0)"/>
<path d="" fill="#FFFFFF" transform="translate(0,0)"/>
<path d="" fill="#FFFFFF" transform="translate(0,0)"/>
<path d="" fill="#FFFFFF" transform="translate(0,0)"/>
<path d="" fill="#FFFFFF" transform="translate(0,0)"/>
<path d="" fill="#FFFFFF" transform="translate(0,0)"/>
<path d="" fill="#FFFFFF" transform="translate(0,0)"/>
<path d="" fill="#FFFFFF" transform="translate(0,0)"/>
<path d="" fill="#FFFFFF" transform="translate(0,0)"/>
<path d="" fill="#FFFFFF" transform="translate(0,0)"/>
<path d="" fill="#FFFFFF" transform="translate(0,0)"/>
<path d="" fill="#FFFFFF" transform="translate(0,0)"/>
<path d="" fill="#FFFFFF" transform="translate(0,0)"/>
<path d="" fill="#FFFFFF" transform="translate(0,0)"/>
<path d="" fill="#FFFFFF" transform="translate(0,0)"/>
<path d="" fill="#FFFFFF" transform="translate(0,0)"/>
<path d="" fill="#FFFFFF" transform="translate(0,0)"/>
<path d="" fill="#FFFFFF" transform="translate(0,0)"/>
<path d="" fill="#FFFFFF" transform="translate(0,0)"/>
<path d="" fill="#FFFFFF" transform="translate(0,0)"/>
<path d="" fill="#FFFFFF" transform="translate(0,0)"/>
<path d="" fill="#FFFFFF" transform="translate(0,0)"/>
<path d="" fill="#FFFFFF" transform="translate(0,0)"/>
<path d="" fill="#FFFFFF" transform="translate(0,0)"/>
<path d="" fill="#FFFFFF" transform="translate(0,0)"/>
<path d="" fill="#FFFFFF" transform="translate(0,0)"/>
<path d="" fill="#FFFFFF" transform="translate(0,0)"/>
<path d="" fill="#FFFFFF" transform="translate(0,0)"/>
<path d="" fill="#FFFFFF" transform="translate(0,0)"/>
<path d="" fill="#FFFFFF" transform="translate(0,0)"/>
<path d="" fill="#FFFFFF" transform="translate(0,0)"/>
<path d="" fill="#FFFFFF" transform="translate(0,0)"/>
<path d="" fill="#FFFFFF" transform="translate(0,0)"/>
<path d="" fill="#FFFFFF" transform="translate(0,0)"/>
<path d="" fill="#FFFFFF" transform="translate(0,0)"/>
<path d="" fill="#FFFFFF" transform="translate(0,0)"/>
<path d="" fill="#FFFFFF" transform="translate(0,0)"/>
<path d="" fill="#FFFFFF" transform="translate(0,0)"/>
<path d="" fill="#FFFFFF" transform="translate(0,0)"/>
<path d="" fill="#FFFFFF" transform="translate(0,0)"/>
<path d="" fill="#FFFFFF" transform="translate(0,0)"/>
<path d="" fill="#FFFFFF" transform="translate(0,0)"/>
<path d="" fill="#FFFFFF" transform="translate(0,0)"/>
<path d="" fill="#FFFFFF" transform="translate(0,0)"/>
<path d="" fill="#FFFFFF" transform="translate(0,0)"/>
<path d="" fill="#FFFFFF" transform="translate(0,0)"/>
<path d="" fill="#FFFFFF" transform="translate(0,0)"/>
<path d="" fill="#FFFFFF" transform="translate(0,0)"/>
<path d="" fill="#FFFFFF" transform="translate(0,0)"/>
<path d="" fill="#FFFFFF" transform="translate(0,0)"/>
<path d="" fill="#FFFFFF" transform="translate(0,0)"/>
<path d="" fill="#FFFFFF" transform="translate(0,0)"/>
<path d="" fill="#FFFFFF" transform="translate(0,0)"/>
<path d="" fill="#FFFFFF" transform="translate(0,0)"/>
<path d="" fill="#FFFFFF" transform="translate(0,0)"/>
<path d="" fill="#FFFFFF" transform="translate(0,0)"/>
<path d="" fill="#FFFFFF" transform="translate(0,0)"/>
<path d="" fill="#FFFFFF" transform="translate(0,0)"/>
<path d="" fill="#FFFFFF" transform="translate(0,0)"/>
<path d="" fill="#FFFFFF" transform="translate(0,0)"/>
<path d="" fill="#FFFFFF" transform="translate(0,0)"/>
<path d="" fill="#FFFFFF" transform="translate(0,0)"/>
</svg>
