<?xml version="1.0" encoding="UTF-8"?>
<svg version="1.1" xmlns="http://www.w3.org/2000/svg" width="512" height="512">
<path d="M0 0 C2.31164507 -0.00144984 4.6232682 -0.00577098 6.93490767 -0.01099443 C15.09289472 -0.0293618 23.25081765 -0.03768352 31.40882468 -0.03609133 C38.03978314 -0.03503036 44.67050461 -0.04905957 51.30140281 -0.07710695 C87.58326525 -0.22713176 123.57412546 -0.20134211 159.66824126 4.04931211 C162.28081784 4.35652445 164.89432615 4.65480413 167.50805259 4.95206785 C263.57083901 15.9405231 263.57083901 15.9405231 286.09363914 36.33451414 C289.74524191 41.85957602 289.53162748 47.01103521 289.51356101 53.40116453 C289.52203055 54.50591627 289.5305001 55.61066801 289.53922629 56.74889708 C289.56258834 60.3934392 289.56361879 64.03755912 289.56238914 67.68217039 C289.5694898 70.21752673 289.57718866 72.75288145 289.58546042 75.28823423 C289.59890247 80.59839046 289.60065597 85.90839104 289.5946157 91.21854734 C289.58796811 97.35134373 289.61087446 103.48353972 289.64792943 109.61621433 C289.68233667 115.52583913 289.68896281 121.43527873 289.68484092 127.34501028 C289.68653582 129.85566515 289.69621372 132.36632768 289.7139852 134.87692022 C289.73608474 138.38418694 289.72651797 141.88999716 289.70887351 145.39725828 C289.72213675 146.43583982 289.7354 147.47442137 289.74906516 148.54447508 C289.66645173 155.60102016 289.66645173 155.60102016 286.68677878 159.41653013 C285.8310427 160.04946486 284.97530662 160.68239958 284.09363914 161.33451414 C283.39883445 161.87076414 282.70402976 162.40701414 281.98817039 162.95951414 C252.07558505 182.71416712 212.93079934 187.25739048 178.09363914 191.33451414 C177.11363944 191.45083189 177.11363944 191.45083189 176.11384177 191.56949949 C131.82178209 196.82513967 87.59703521 198.84585063 43.00770164 198.65708494 C38.6764115 198.64356605 34.34522243 198.64894698 30.01392055 198.65394449 C-2.16941936 198.68205165 -34.20483112 197.94459128 -66.21886086 194.39701414 C-67.85837795 194.22222835 -69.49794625 194.04792242 -71.13756204 193.87406492 C-81.79755429 192.73177447 -92.43407694 191.43989455 -103.05479836 189.97513914 C-106.91604657 189.44812065 -110.77691866 189.0394871 -114.65611672 188.67191648 C-141.89214844 186.02764156 -184.67506524 180.14142972 -203.90636086 158.33451414 C-204.85803156 155.47950205 -205.04449124 153.65807822 -205.07371926 150.69297361 C-205.08521005 149.73975218 -205.09670083 148.78653074 -205.10853982 147.80442381 C-205.11594186 146.76022276 -205.1233439 145.71602171 -205.13097024 144.6401782 C-205.14236032 143.53907713 -205.15375039 142.43797606 -205.16548562 141.30350828 C-205.26296584 131.15586114 -205.31441247 121.00758047 -205.35117745 110.85954237 C-205.37874242 103.36276699 -205.42949809 95.86693862 -205.51165175 88.37055755 C-205.57425321 82.45727611 -205.5984069 76.54420155 -205.60944009 70.63058805 C-205.61985227 68.11873387 -205.64230346 65.60689957 -205.67703652 63.09526396 C-205.72316528 59.57822113 -205.72525085 56.06370578 -205.71690774 52.5464282 C-205.74050363 51.51032408 -205.76409951 50.47421995 -205.78841043 49.40671873 C-205.72778371 44.12342339 -205.30420888 41.10862436 -201.52342629 37.25461912 C-171.67110401 11.56117585 -116.66577419 9.00709522 -78.90636086 4.58451414 C-77.62623116 4.43307447 -77.62623116 4.43307447 -76.32024026 4.27857542 C-50.89781369 1.30396313 -25.58466582 0.00908213 0 0 Z " fill="#FFFFFF" transform="translate(213.90636086463928,0.6654858589172363)"/>
<path d="M0 0 C1.09828125 0.47308594 2.1965625 0.94617188 3.328125 1.43359375 C81.25198767 33.66599951 175.38401887 33.5750093 442 15 C443.20317871 14.73074707 444.40635742 14.46149414 445.64599609 14.18408203 C460.68473995 10.76428006 475.06200392 6.6058932 489.28955078 0.62329102 C491 0 491 0 493 0 C493.14033858 14.22117624 493.24565368 28.44224467 493.31087303 42.6639719 C493.34217632 49.26784353 493.38463307 55.87124974 493.45263672 62.47485352 C493.51786165 68.84856168 493.55371359 75.22182238 493.56926346 81.59583855 C493.5803439 84.02674338 493.60198169 86.45762391 493.63438034 88.88833809 C493.67798265 92.29531769 493.68393214 95.70045199 493.68115234 99.10766602 C493.702724 100.11108032 493.72429565 101.11449463 493.746521 102.14831543 C493.69432695 108.06622121 492.80139954 111.33718283 488.64293861 115.63119411 C485.81006368 117.99138935 482.77441901 119.5929761 479.4375 121.125 C478.81037109 121.43308594 478.18324219 121.74117188 477.53710938 122.05859375 C465.97664217 127.6048791 453.9710109 131.36271569 441.5625 134.4375 C440.79587036 134.62909698 440.02924072 134.82069397 439.23937988 135.01809692 C414.23916678 141.2136318 388.77987002 145.05425867 363.08740234 146.76708984 C358.42516605 147.1188037 353.7782807 147.60744898 349.12712097 148.08128357 C336.15282676 149.3872054 323.17831371 150.40067112 310.15625 151.078125 C308.91790311 151.14280598 308.91790311 151.14280598 307.65453911 151.20879364 C288.79960212 152.16826729 269.96054962 152.3078267 251.0847168 152.26074219 C246.48643099 152.24935727 241.88837708 152.25614783 237.29009914 152.26761246 C202.53149643 152.34115808 167.93600686 150.84939192 133.3125 147.75 C131.51149338 147.5904332 131.51149338 147.5904332 129.67410278 147.42764282 C34.83844781 138.92156258 34.83844781 138.92156258 1.38583374 114.0569458 C-2.09325581 109.59922185 -1.67302433 105.85714944 -1.58349609 100.35058594 C-1.58583252 99.27856934 -1.58816895 98.20655273 -1.59057617 97.10205078 C-1.59218983 93.56232859 -1.55817094 90.02391212 -1.5234375 86.484375 C-1.51664928 84.0276944 -1.51192636 81.5710073 -1.50918579 79.11431885 C-1.49850907 73.96957477 -1.4718073 68.82526527 -1.43212891 63.68066406 C-1.38115467 57.07032566 -1.35610295 50.46023669 -1.34119225 43.84972763 C-1.32643746 37.56124182 -1.30118697 31.27281532 -1.2734375 24.984375 C-1.26852673 23.77660149 -1.26361595 22.56882797 -1.25855637 21.32445526 C-1.24235971 17.92684887 -1.21895859 14.52937905 -1.19287109 11.13183594 C-1.18861115 10.1147052 -1.1843512 9.09757446 -1.17996216 8.04962158 C-1.17136169 7.12991577 -1.16276123 6.21020996 -1.15390015 5.26263428 C-1.14832785 4.45887234 -1.14275555 3.6551104 -1.13701439 2.82699203 C-1 1 -1 1 0 0 Z " fill="#FFFFFF" transform="translate(10,205)"/>
<path d="M0 0 C3.17963173 1.11078967 6.35900251 2.22232445 9.53833008 3.33398438 C10.4303437 3.64559509 11.32235733 3.95720581 12.24140167 4.27825928 C16.20660695 5.66504989 20.16977504 7.05580162 24.12080383 8.48254395 C34.7797475 12.31316019 45.70724505 14.39871895 56.8125 16.5 C57.82399109 16.69387299 58.83548218 16.88774597 59.87762451 17.0874939 C85.46327685 21.98431394 110.93453458 25.78083276 136.875 28.1875 C137.71758362 28.266586 138.56016724 28.345672 139.42828369 28.42715454 C145.94687473 29.02911483 152.47053396 29.53184299 159 30 C160.20320892 30.08860291 161.40641785 30.17720581 162.64608765 30.26849365 C188.50104632 32.1128485 214.31399065 32.31303595 240.22680664 32.26074219 C245.92283234 32.24934179 251.61867123 32.25613577 257.31469059 32.26761913 C282.94511746 32.31150332 308.43883662 31.96238288 334 30 C335.55676956 29.88304779 335.55676956 29.88304779 337.14498901 29.76373291 C343.08328645 29.30832148 349.0110032 28.77575991 354.9375 28.1875 C355.79645874 28.10385193 356.65541748 28.02020386 357.54040527 27.934021 C384.85735343 25.25829079 411.86388177 21.49969557 438.70361328 15.70556641 C441.75486909 15.0524684 444.81085421 14.43354225 447.87109375 13.82421875 C459.24323844 11.48747669 469.95030308 8.11349753 480.79223633 3.94604492 C481.7902124 3.56552979 482.78818848 3.18501465 483.81640625 2.79296875 C484.69756104 2.4477417 485.57871582 2.10251465 486.48657227 1.74682617 C489.13003445 0.96136227 491.26019933 0.94541633 494 1 C494.16232659 14.68233877 494.28663948 28.36444774 494.3626852 42.04755402 C494.39918718 48.40151528 494.4486845 54.75481684 494.52807617 61.10839844 C494.60424059 67.24222784 494.64601312 73.37542348 494.6641407 79.50968933 C494.67705579 81.8476916 494.70227666 84.18565991 494.7401104 86.52339172 C494.79107448 89.80346088 494.79791738 93.08092553 494.79467773 96.36132812 C494.81984467 97.3237442 494.8450116 98.28616028 494.87094116 99.27774048 C494.80354256 105.60178158 493.29774551 108.81374309 488.88745213 113.35126495 C483.55274773 118.01125817 477.55222584 120.91649273 470.9375 123.3125 C470.13715332 123.6024585 469.33680664 123.89241699 468.51220703 124.19116211 C413.12434987 143.50450633 351.92699738 148.5365675 293.67972946 148.40297651 C289.17458407 148.39516332 284.66945312 148.40248341 280.16430664 148.40713501 C272.6111311 148.41253169 265.05804469 148.40556418 257.50488281 148.39111328 C248.88026688 148.37479878 240.25586404 148.38009168 231.63125324 148.3965925 C224.10987485 148.41038433 216.58855906 148.41204238 209.06717205 148.40427649 C204.62597372 148.3996953 200.18487409 148.39870002 195.74368286 148.40888596 C166.20787892 148.46746279 137.03329678 146.69963617 107.75 142.6875 C106.9783551 142.58361969 106.20671021 142.47973938 105.41168213 142.37271118 C76.15946071 138.41083267 46.66714149 133.17375407 19.25 121.875 C18.51813477 121.57480957 17.78626953 121.27461914 17.03222656 120.96533203 C9.4646748 117.65075147 3.15305031 113.90779387 0 106 C-0.41850802 102.52632102 -0.37945489 99.0834339 -0.34057617 95.58837891 C-0.34101425 94.55362427 -0.34145233 93.51886963 -0.34190369 92.45275879 C-0.3398192 89.04383256 -0.31650357 85.63540248 -0.29296875 82.2265625 C-0.2873716 79.85859445 -0.28310207 77.49062292 -0.28010559 75.12265015 C-0.26866625 68.89848188 -0.23920659 62.67452454 -0.20599365 56.45043945 C-0.17527333 50.09589491 -0.16159604 43.74131619 -0.14648438 37.38671875 C-0.11433627 24.92438664 -0.06315068 12.46221088 0 0 Z " fill="#FFFFFF" transform="translate(9,363)"/>
</svg>
