<?xml version="1.0" encoding="UTF-8"?>
<svg version="1.1" xmlns="http://www.w3.org/2000/svg" width="500" height="392">
<path d="M0 0 C35.04985662 -0.0229149 70.09971172 -0.04052288 105.14957426 -0.05106533 C109.29242452 -0.05231596 113.43527476 -0.05361029 117.578125 -0.05493164 C118.40285295 -0.05519395 119.22758089 -0.05545626 120.07730059 -0.05572652 C133.41152232 -0.06007165 146.74573971 -0.06795283 160.07995887 -0.0771528 C173.77351647 -0.08652153 187.46707181 -0.09206242 201.16063249 -0.09408849 C209.6026292 -0.09545704 218.04461365 -0.09977134 226.48660658 -0.10791647 C232.28441003 -0.11322367 238.08220719 -0.11479529 243.88001288 -0.11350138 C247.21939979 -0.11286419 250.55874826 -0.1143608 253.89813423 -0.11920547 C290.66623615 -0.16991271 290.66623615 -0.16991271 295 4 C295.42248535 6.52589417 295.42248535 6.52589417 295.30664062 9.49047852 C295.27030518 10.56387482 295.23396973 11.63727112 295.1965332 12.74319458 C294.90609022 17.55620466 294.54840363 22.35202048 294.09375 27.15234375 C293.05538402 38.84365412 292.3256094 50.5379833 291.6824646 62.25689697 C291.49391796 65.67268473 291.2991693 69.08807239 291.1027832 72.50341797 C290.56692954 81.8357202 290.0347978 91.16756073 289.57421875 100.50390625 C288.45269476 121.9116937 285.70439996 143.10810277 283.06694031 164.37150574 C279.80895306 190.63966255 277.55300581 216.86895613 276.66137695 243.32495117 C276.29384638 254.1975038 275.67673741 265.04427548 274.86959839 275.89245605 C274.74989918 277.52431315 274.6354241 279.15656339 274.52664185 280.78918457 C272.9898375 303.57171247 272.9898375 303.57171247 265.98046875 310.43359375 C261.29101356 313.90989373 255.84915131 315.42756391 250.3125 317.0625 C248.65190552 317.5738147 248.65190552 317.5738147 246.95776367 318.09545898 C239.48854242 320.36034041 231.97207572 322.33989588 224.37890625 324.13916016 C218.24907706 325.61399706 212.2975142 327.4610137 206.3125 329.4375 C194.37571228 333.3454023 182.28341426 336.39016516 170 339 C169.30422852 339.14840332 168.60845703 339.29680664 167.89160156 339.44970703 C159.12361249 341.21505818 150.16323346 341.27711526 141.25 341.4375 C140.13197998 341.47214355 139.01395996 341.50678711 137.86206055 341.54248047 C128.20684194 341.58811854 119.72622722 339.34591757 110.53308105 336.71029663 C106.27314471 335.51577566 101.98010331 334.45659172 97.6875 333.38671875 C95.92765864 332.94341297 94.16797572 332.49947776 92.40844727 332.05493164 C91.52424103 331.83161163 90.64003479 331.60829163 89.72903442 331.37820435 C72.36128298 326.98251725 55.08051064 322.42407618 38 317 C36.37940674 316.48759766 36.37940674 316.48759766 34.72607422 315.96484375 C33.64986816 315.61679687 32.57366211 315.26875 31.46484375 314.91015625 C30.49023193 314.59570557 29.51562012 314.28125488 28.51147461 313.95727539 C24.15645662 312.29731374 21.99423882 310.06326048 19.98709106 305.897995 C17.45115882 299.80557428 16.10373406 294.12480341 15.3671875 287.58203125 C15.18783157 286.10039238 15.18783157 286.10039238 15.00485229 284.58882141 C13.72953883 273.54280139 13.02562702 262.45715405 12.35006714 251.36123657 C11.95635605 244.93475061 11.53225908 238.51030049 11.10546875 232.0859375 C11.0617193 231.42623018 11.01796986 230.76652287 10.97289467 230.08682442 C9.9669334 214.98064254 8.73492793 199.89649373 7.4375 184.8125 C7.33753723 183.6302182 7.23757446 182.4479364 7.13458252 181.22982788 C6.04591764 168.39971148 4.75176515 155.63092241 3.09008789 142.86228943 C1.68622509 131.89500758 0.79804242 120.89602587 -0.0625 109.875 C-0.23460419 107.72304241 -0.40697072 105.57110579 -0.57958984 103.41918945 C-1.60906149 90.48800779 -2.53158468 77.5537528 -3.35180664 64.60766602 C-3.93827749 55.49082915 -4.75675067 46.41630879 -5.75 37.33544922 C-6.01480964 34.86165137 -6.2591952 32.38640088 -6.5 29.91015625 C-7.58944188 18.73234142 -7.58944188 18.73234142 -9.73046875 7.71484375 C-10 6 -10 6 -9 4 C-6.93359375 3.3671875 -6.93359375 3.3671875 -4.4375 2.875 C-3.61121094 2.70742188 -2.78492187 2.53984375 -1.93359375 2.3671875 C-0.97646484 2.18542969 -0.97646484 2.18542969 0 2 C0 1.34 0 0.68 0 0 Z M130.38305664 62.6484375 C118.89487544 62.87155783 107.41631127 63.03846814 95.92578125 62.9609375 C94.91330322 62.95503601 93.9008252 62.94913452 92.85766602 62.9430542 C88.18754069 62.91292621 83.51869001 62.86506072 78.84912109 62.78710938 C77.22624092 62.77171426 75.60335692 62.75671473 73.98046875 62.7421875 C73.26675613 62.72352631 72.55304352 62.70486511 71.81770325 62.68563843 C66.74374932 62.65975344 63.46576097 63.81058783 59 66 C58.29230469 66.28101562 57.58460938 66.56203125 56.85546875 66.8515625 C54.35454331 68.01124221 52.37408863 69.16477376 51.2233429 71.73403931 C49.64639277 78.69757298 50.14518788 85.20620471 50.79296875 92.2734375 C50.89966385 93.55062653 51.00635895 94.82781555 51.11628723 96.14370728 C51.34279818 98.84919313 51.57805543 101.55371361 51.82055664 104.2578125 C52.12338721 107.63479282 52.41190365 111.01276989 52.69457817 114.39149094 C53.82524659 127.89388993 55.08859283 141.38090306 56.55078125 154.8515625 C56.66616745 155.93343842 56.78155365 157.01531433 56.9004364 158.12997437 C57.85550911 167.67870492 57.85550911 167.67870492 60 177 C63.40962057 178.70481028 67.30744197 178.11934456 71.05761719 178.09765625 C71.99792786 178.09619598 72.93823853 178.09473572 73.90704346 178.0932312 C75.95757315 178.08941632 78.0080995 178.08329051 80.05861664 178.07516479 C83.32450516 178.06239194 86.59035292 178.05588067 89.85626221 178.05102539 C97.98744787 178.03765059 106.11859607 178.01373105 114.24975586 177.98962402 C121.09062752 177.96968329 127.93148346 177.95411598 134.77237701 177.94406128 C137.95234488 177.93768941 141.13224747 177.92517067 144.31219482 177.91235352 C154.25999265 177.88700586 164.18278269 178.00590953 174.12207031 178.44140625 C175.02888927 178.48039536 175.93570824 178.51938446 176.87000656 178.55955505 C181.31830776 178.77774084 185.61793017 179.14462248 190 180 C191.31117271 194.86586357 192.77520413 212.6743876 188 227 C185.9375 228 185.9375 228 183 229 C181.19402344 229.70769531 181.19402344 229.70769531 179.3515625 230.4296875 C175.11375622 232.02279682 170.84832488 233.12707582 166.4375 234.125 C165.72142578 234.29386719 165.00535156 234.46273437 164.26757812 234.63671875 C146.51747922 238.7391074 129.53492626 237.99965226 112.5 231.625 C111.31374023 231.18692017 111.31374023 231.18692017 110.10351562 230.73999023 C102.84120385 227.88480953 102.84120385 227.88480953 101 224 C100.11862283 221.093107 99.47927642 218.16295708 98.875 215.1875 C98.70613281 214.40568359 98.53726563 213.62386719 98.36328125 212.81835938 C97.38944228 208.22904736 96.60860216 203.65145937 96 199 C91.37203114 197.78065491 87.04030983 197.97925085 82.3125 198.25 C81.51465088 198.29447266 80.71680176 198.33894531 79.89477539 198.38476562 C70.25921632 198.80317165 70.25921632 198.80317165 62 203 C61.5231584 212.74352381 62.2133165 222.53214077 62.875 232.25 C62.95363281 233.53390625 63.03226563 234.8178125 63.11328125 236.140625 C63.07146133 248.31712276 63.07146133 248.31712276 67.84838867 258.69970703 C71.07165824 260.64764005 74.55329806 261.30651934 78.1875 262.125 C87.78746136 264.40287956 97.30041335 266.94702887 106.8125 269.5625 C108.19489601 269.94225496 109.57730144 270.32197562 110.9597168 270.70166016 C111.96851646 270.97907043 111.96851646 270.97907043 112.99769592 271.26208496 C114.34284186 271.63088009 115.68849462 271.99783172 117.03465271 272.36291504 C120.3441313 273.26147762 123.64162187 274.18500284 126.92724609 275.16748047 C138.70092497 278.57529558 148.44218807 278.93632 160.25 275.75 C161.22364502 275.49621582 162.19729004 275.24243164 163.20043945 274.98095703 C166.8095079 274.01908252 170.40633285 273.01753366 174 272 C174.78622742 271.77751587 175.57245483 271.55503174 176.38250732 271.32580566 C181.74945467 269.80157976 187.108126 268.25078064 192.46057129 266.6763916 C194.27157421 266.14417287 196.083503 265.61509412 197.8963623 265.0892334 C200.46984176 264.33985188 203.03807124 263.57461381 205.60546875 262.8046875 C206.37849838 262.58185089 207.15152802 262.35901428 207.94798279 262.12942505 C213.1378485 260.54652413 217.4139356 258.68816352 220.29296875 253.80859375 C220.58816406 253.02613281 220.88335937 252.24367188 221.1875 251.4375 C221.49042969 250.67308594 221.79335938 249.90867187 222.10546875 249.12109375 C224.68209508 240.13103071 225.40365916 231.07295639 225.86054802 221.76325607 C225.96773816 219.58974713 226.08457368 217.41693204 226.20375061 215.24404907 C226.54042333 209.07369083 226.859711 202.90246319 227.17456055 196.73095703 C227.40684651 192.20286439 227.64914521 187.6754093 227.90234375 183.1484375 C227.94290264 182.42134331 227.98346153 181.69424911 228.02524948 180.94512177 C228.56341791 171.55536318 229.40190978 162.3917757 231.41625977 153.19384766 C232.04826724 149.73591297 232.09772748 146.50760909 232 143 C213.86325618 142.08174568 195.75041622 141.9129802 177.59375 141.9375 C176.46302063 141.93894012 175.33229126 141.94038025 174.16729736 141.94186401 C165.94484401 141.95414892 157.72242695 141.97623334 149.5 142 C141.19070194 142.02370818 132.88142167 142.04397286 124.57209778 142.05593872 C121.27439818 142.06239112 117.97675745 142.07487779 114.67907715 142.08764648 C112.67081757 142.09127626 110.66255746 142.09462833 108.65429688 142.09765625 C107.74535675 142.10282257 106.83641663 142.10798889 105.89993286 142.11331177 C101.79939492 142.11365588 97.99900395 142.04138315 94 141 C91.30952509 132.046823 91.90738778 121.44319321 91.8125 112.125 C91.79832031 110.80757812 91.78414062 109.49015625 91.76953125 108.1328125 C92 105 92 105 94 103 C96.74223338 102.7525833 99.38963059 102.62597931 102.13671875 102.5859375 C102.96718216 102.56657135 103.79764557 102.5472052 104.65327454 102.5272522 C107.33124346 102.46741472 110.00926694 102.42132202 112.6875 102.375 C114.41082601 102.33677226 116.13413389 102.29771781 117.85742188 102.2578125 C126.83404289 102.06215613 135.80652409 101.98118134 144.78515625 102 C158.34991839 102.02773696 171.91149672 101.87322375 185.47460938 101.68261719 C188.34631697 101.64273464 191.21801717 101.60821972 194.08984375 101.578125 C197.63080057 101.54097529 201.17152946 101.4946361 204.7122879 101.44193649 C206.67007694 101.41494883 208.62798229 101.3968528 210.58587646 101.37905884 C223.15968562 101.50821596 223.15968562 101.50821596 234.61328125 97.2265625 C238.91581419 90.31827018 238.20344012 80.21837035 238.6875 72.25 C238.73608154 71.45126465 238.78466309 70.6525293 238.8347168 69.82958984 C238.93345337 67.88812144 238.97241358 65.94378174 239 64 C235.62475453 60.62475453 225.80620655 61.8747227 221.32516479 61.86117554 C220.22270416 61.86315948 219.12024353 61.86514343 217.984375 61.8671875 C216.21527267 61.86520859 216.21527267 61.86520859 214.41043091 61.8631897 C211.19497242 61.86159547 207.9795731 61.86497996 204.76412201 61.87142944 C202.73729814 61.87502252 200.71048145 61.87662485 198.68365479 61.87768555 C175.91171074 61.89241419 153.15076591 62.19564887 130.38305664 62.6484375 Z " fill="#FDFDFD" transform="translate(106,24)"/>
<path d="M0 0 C2.23710558 0.06670097 4.47434339 0.12555735 6.71166992 0.18432617 C8.13941816 0.22617347 9.56715325 0.2684727 10.99487305 0.3112793 C12.90804321 0.36626587 12.90804321 0.36626587 14.85986328 0.42236328 C17.7487793 0.62768555 17.7487793 0.62768555 18.7487793 1.62768555 C18.87541021 4.45184937 18.93398478 7.24063348 18.9362793 10.06518555 C18.94852539 10.85473633 18.96077148 11.64428711 18.97338867 12.45776367 C18.97865209 14.51575989 18.87084215 16.57330564 18.7487793 18.62768555 C18.0887793 19.28768555 17.4287793 19.94768555 16.7487793 20.62768555 C16.7487793 15.01768555 16.7487793 9.40768555 16.7487793 3.62768555 C9.93323968 2.76775147 9.93323968 2.76775147 3.19311523 2.49829102 C2.16388443 2.49517914 1.13465363 2.49206726 0.07423401 2.48886108 C-1.57960045 2.49183701 -1.57960045 2.49183701 -3.2668457 2.49487305 C-5.03723961 2.49289413 -5.03723961 2.49289413 -6.84339905 2.49087524 C-10.05926827 2.48928167 -13.27507828 2.49266022 -16.49094009 2.49911499 C-18.51010532 2.50270133 -20.52926337 2.50430885 -22.5484314 2.50537109 C-45.66995075 2.52040884 -68.78173034 2.81325361 -91.89868164 3.27172852 C-103.03082174 3.49090619 -114.15963128 3.67581086 -125.29418945 3.69018555 C-126.24030594 3.69248169 -127.18642242 3.69477783 -128.16120911 3.69714355 C-137.21014491 3.68706202 -146.22404655 3.22381969 -155.2512207 2.62768555 C-155.2512207 2.29768555 -155.2512207 1.96768555 -155.2512207 1.62768555 C-150.59621304 0.44458879 -146.11002206 0.50045574 -141.34375 0.5300293 C-140.01059753 0.5322197 -140.01059753 0.5322197 -138.6505127 0.53445435 C-136.72117749 0.53825575 -134.79184576 0.54436748 -132.86252403 0.55252075 C-129.78487325 0.56535471 -126.707266 0.57182042 -123.6295929 0.57666016 C-115.96841204 0.58999668 -108.30727137 0.61391894 -100.64611816 0.63806152 C-94.1943718 0.6580479 -87.74264234 0.6735943 -81.29087257 0.68362427 C-78.30266392 0.68996851 -75.3145263 0.70248491 -72.32633972 0.71533203 C-60.36835834 0.746748 -48.46019337 0.42129496 -36.51571655 -0.14698792 C-24.34838645 -0.70951881 -12.16895013 -0.36942191 0 0 Z " fill="#EFEBED" transform="translate(327.251220703125,84.372314453125)"/>
<path d="M0 0 C0.66 0 1.32 0 2 0 C2.05534912 0.88260498 2.11069824 1.76520996 2.16772461 2.67456055 C2.37563502 5.96413164 2.58658238 9.25347923 2.79956055 12.54272461 C2.89093948 13.96354577 2.98112429 15.38444426 3.07006836 16.80541992 C3.1984813 18.8535705 3.33125463 20.90140006 3.46484375 22.94921875 C3.543396 24.17987061 3.62194824 25.41052246 3.70288086 26.6784668 C3.95847842 29.53582487 4.43579739 32.19484806 5 35 C5.14156928 36.91042776 5.24474702 38.82395604 5.31640625 40.73828125 C5.35830078 41.80498047 5.40019531 42.87167969 5.44335938 43.97070312 C5.48267578 45.07349609 5.52199219 46.17628906 5.5625 47.3125 C5.60568359 48.43462891 5.64886719 49.55675781 5.69335938 50.71289062 C5.79914787 53.47514569 5.90123672 56.2374863 6 59 C4.10366286 55.73031862 3.5797177 52.9227803 3.18359375 49.1796875 C3.05960205 48.01590576 2.93561035 46.85212402 2.80786133 45.65307617 C2.68564209 44.40631104 2.56342285 43.1595459 2.4375 41.875 C2.30819092 40.59794189 2.17888184 39.32088379 2.0456543 38.00512695 C0.82758293 25.35760277 0.291342 12.70154562 0 0 Z " fill="#F3F0F1" transform="translate(118,262)"/>
<path d="M0 0 C0.66 0.66 1.32 1.32 2 2 C1.65625 4.30639648 1.65625 4.30639648 1 7 C0.80825558 8.6965719 0.64264598 10.39625263 0.5 12.09765625 C0.4179834 13.05921631 0.3359668 14.02077637 0.25146484 15.01147461 C0.12698975 16.52173218 0.12698975 16.52173218 0 18.0625 C-0.08685059 19.08931885 -0.17370117 20.1161377 -0.26318359 21.17407227 C-0.51145502 24.11583253 -0.75613098 27.05787203 -1 30 C-1.11696254 31.39324807 -1.23411394 32.78648032 -1.3515625 34.1796875 C-1.570339 36.78625326 -1.78695165 39.39296103 -2 42 C-2.33 42 -2.66 42 -3 42 C-3.30357143 12.55357143 -3.30357143 12.55357143 0 0 Z " fill="#ECE6E7" transform="translate(336,182)"/>
<path d="M0 0 C0 0.99 0 1.98 0 3 C-2.87949095 5.73075074 -5.9466607 6.84273063 -9.68359375 8.04296875 C-10.77607422 8.39423828 -11.86855469 8.74550781 -12.99414062 9.10742188 C-14.69860352 9.64206055 -14.69860352 9.64206055 -16.4375 10.1875 C-17.56994141 10.55552734 -18.70238281 10.92355469 -19.86914062 11.30273438 C-29.10300587 14.23558845 -29.10300587 14.23558845 -34 14 C-30.95225859 12.37596878 -27.91007981 11.24502569 -24.625 10.1875 C-19.90602316 8.63383195 -15.19433989 7.06434848 -10.5 5.4375 C-9.3553125 5.04433594 -8.210625 4.65117187 -7.03125 4.24609375 C-4.26192506 3.1076728 -2.27246856 1.92157268 0 0 Z " fill="#F7F2F4" transform="translate(372,331)"/>
<path d="M0 0 C0.66163651 0.02502594 1.32327301 0.05005188 2.00495911 0.07583618 C4.11451559 0.15789343 6.2231155 0.2545346 8.33203125 0.3515625 C9.76363302 0.4098169 11.19527385 0.46711987 12.62695312 0.5234375 C16.13333261 0.66344905 19.63900137 0.81654463 23.14453125 0.9765625 C23.14453125 1.3065625 23.14453125 1.6365625 23.14453125 1.9765625 C-0.01171875 3.7265625 -0.01171875 3.7265625 -9.85546875 1.9765625 C-6.13001284 -0.50707477 -4.42776506 -0.18682553 0 0 Z " fill="#F4F1F2" transform="translate(265.85546875,201.0234375)"/>
<path d="M0 0 C0.33 0 0.66 0 1 0 C1.33165588 8.862582 0.3213258 17.2580141 -1 26 C-1.66 25.67 -2.32 25.34 -3 25 C-3.22043078 19.70966135 -2.95802491 15.09406651 -1.51171875 9.99609375 C-0.66699965 6.70104442 -0.36198277 3.37850582 0 0 Z " fill="#F0EEEF" transform="translate(381,272)"/>
<path d="M0 0 C5.9425283 0.42446631 11.54419699 1.50589304 17.3125 2.9375 C18.00601563 3.10733398 18.69953125 3.27716797 19.4140625 3.45214844 C22.81870909 4.3198375 25.94283328 5.24743399 29 7 C18.98077306 6.50725113 9.61453037 3.67509007 0 1 C0 0.67 0 0.34 0 0 Z " fill="#F5F2F3" transform="translate(195,354)"/>
<path d="M0 0 C0.99 0.33 1.98 0.66 3 1 C2.51917969 1.41507812 2.03835937 1.83015625 1.54296875 2.2578125 C-3.08590265 7.48433565 -1.09135275 19.43275263 -1 26 C-1.33 26 -1.66 26 -2 26 C-2.82994664 20.88645778 -3.21135732 15.92811976 -3.25 10.75 C-3.270625 10.04359375 -3.29125 9.3371875 -3.3125 8.609375 C-3.35150873 3.46022277 -3.35150873 3.46022277 -1.484375 1.015625 C-0.99453125 0.68046875 -0.5046875 0.3453125 0 0 Z " fill="#F1EDEE" transform="translate(158,92)"/>
<path d="M0 0 C0.70189453 0.01353516 1.40378906 0.02707031 2.12695312 0.04101562 C3.85579829 0.07629818 5.58424765 0.13010417 7.3125 0.1875 C7.3125 0.5175 7.3125 0.8475 7.3125 1.1875 C2.3625 1.5175 -2.5875 1.8475 -7.6875 2.1875 C-8.7416518 5.34995541 -9.00025672 8.05698218 -9.25 11.375 C-9.33378906 12.46167969 -9.41757813 13.54835937 -9.50390625 14.66796875 C-9.56449219 15.49941406 -9.62507812 16.33085937 -9.6875 17.1875 C-10.0175 17.1875 -10.3475 17.1875 -10.6875 17.1875 C-10.76847324 14.91725032 -10.82667704 12.64617925 -10.875 10.375 C-10.90980469 9.11042969 -10.94460937 7.84585938 -10.98046875 6.54296875 C-10.6875 3.1875 -10.6875 3.1875 -9.65625 1.25 C-6.55938086 -0.4213262 -3.42001883 -0.1245385 0 0 Z " fill="#F0F0F0" transform="translate(207.6875,125.8125)"/>
<path d="M0 0 C0.66 0 1.32 0 2 0 C2.05416188 1.60379341 2.09286638 3.20811406 2.125 4.8125 C2.14820313 5.70582031 2.17140625 6.59914063 2.1953125 7.51953125 C2 10 2 10 0 13 C-1.18306728 10.63386544 -1.13354608 9.13219264 -1.125 6.5 C-1.12757813 5.7059375 -1.13015625 4.911875 -1.1328125 4.09375 C-1 2 -1 2 0 0 Z " fill="#F2EEF0" transform="translate(377,310)"/>
<path d="M0 0 C0.66 0.66 1.32 1.32 2 2 C1.72916115 3.67795566 1.3779399 5.34287891 1 7 C0.73268462 9.76604053 0.5887487 12.53795423 0.4375 15.3125 C0.39431641 16.05306641 0.35113281 16.79363281 0.30664062 17.55664062 C0.20129568 19.37091464 0.10021684 21.1854355 0 23 C-0.33 23 -0.66 23 -1 23 C-1.85602429 14.86776924 -2.31320723 7.89211879 0 0 Z " fill="#F4F0F2" transform="translate(336,182)"/>
<path d="M0 0 C0.84304687 0.42925781 0.84304687 0.42925781 1.703125 0.8671875 C4.02870923 2.01415931 6.37770201 3.07839794 8.75 4.125 C9.54921875 4.47820312 10.3484375 4.83140625 11.171875 5.1953125 C11.77515625 5.46085937 12.3784375 5.72640625 13 6 C10.60042386 6.84119973 9.35077442 7.11193544 6.89453125 6.328125 C6.20746094 5.97234375 5.52039063 5.6165625 4.8125 5.25 C4.11769531 4.90453125 3.42289063 4.5590625 2.70703125 4.203125 C1 3 1 3 0 0 Z " fill="#F7F2F5" transform="translate(128,332)"/>
<path d="M0 0 C1.98 0 3.96 0 6 0 C5.67 0.99 5.34 1.98 5 3 C2.36 3.33 -0.28 3.66 -3 4 C-2.67 3.34 -2.34 2.68 -2 2 C-1.34 2 -0.68 2 0 2 C0 1.34 0 0.68 0 0 Z " fill="#D6CDD8" transform="translate(106,24)"/>
<path d="" fill="#FFFFFF" transform="translate(0,0)"/>
<path d="" fill="#FFFFFF" transform="translate(0,0)"/>
<path d="" fill="#FFFFFF" transform="translate(0,0)"/>
<path d="" fill="#FFFFFF" transform="translate(0,0)"/>
<path d="" fill="#FFFFFF" transform="translate(0,0)"/>
<path d="" fill="#FFFFFF" transform="translate(0,0)"/>
<path d="" fill="#FFFFFF" transform="translate(0,0)"/>
<path d="" fill="#FFFFFF" transform="translate(0,0)"/>
<path d="" fill="#FFFFFF" transform="translate(0,0)"/>
<path d="" fill="#FFFFFF" transform="translate(0,0)"/>
<path d="" fill="#FFFFFF" transform="translate(0,0)"/>
<path d="" fill="#FFFFFF" transform="translate(0,0)"/>
<path d="" fill="#FFFFFF" transform="translate(0,0)"/>
<path d="" fill="#FFFFFF" transform="translate(0,0)"/>
<path d="" fill="#FFFFFF" transform="translate(0,0)"/>
<path d="" fill="#FFFFFF" transform="translate(0,0)"/>
<path d="" fill="#FFFFFF" transform="translate(0,0)"/>
<path d="" fill="#FFFFFF" transform="translate(0,0)"/>
<path d="" fill="#FFFFFF" transform="translate(0,0)"/>
<path d="" fill="#FFFFFF" transform="translate(0,0)"/>
<path d="" fill="#FFFFFF" transform="translate(0,0)"/>
<path d="" fill="#FFFFFF" transform="translate(0,0)"/>
<path d="" fill="#FFFFFF" transform="translate(0,0)"/>
<path d="" fill="#FFFFFF" transform="translate(0,0)"/>
<path d="" fill="#FFFFFF" transform="translate(0,0)"/>
<path d="" fill="#FFFFFF" transform="translate(0,0)"/>
<path d="" fill="#FFFFFF" transform="translate(0,0)"/>
<path d="" fill="#FFFFFF" transform="translate(0,0)"/>
<path d="" fill="#FFFFFF" transform="translate(0,0)"/>
<path d="" fill="#FFFFFF" transform="translate(0,0)"/>
<path d="" fill="#FFFFFF" transform="translate(0,0)"/>
<path d="" fill="#FFFFFF" transform="translate(0,0)"/>
<path d="" fill="#FFFFFF" transform="translate(0,0)"/>
<path d="" fill="#FFFFFF" transform="translate(0,0)"/>
<path d="" fill="#FFFFFF" transform="translate(0,0)"/>
<path d="" fill="#FFFFFF" transform="translate(0,0)"/>
<path d="" fill="#FFFFFF" transform="translate(0,0)"/>
<path d="" fill="#FFFFFF" transform="translate(0,0)"/>
<path d="" fill="#FFFFFF" transform="translate(0,0)"/>
<path d="" fill="#FFFFFF" transform="translate(0,0)"/>
<path d="" fill="#FFFFFF" transform="translate(0,0)"/>
<path d="" fill="#FFFFFF" transform="translate(0,0)"/>
<path d="" fill="#FFFFFF" transform="translate(0,0)"/>
<path d="" fill="#FFFFFF" transform="translate(0,0)"/>
<path d="" fill="#FFFFFF" transform="translate(0,0)"/>
<path d="" fill="#FFFFFF" transform="translate(0,0)"/>
<path d="" fill="#FFFFFF" transform="translate(0,0)"/>
<path d="" fill="#FFFFFF" transform="translate(0,0)"/>
<path d="" fill="#FFFFFF" transform="translate(0,0)"/>
<path d="" fill="#FFFFFF" transform="translate(0,0)"/>
<path d="" fill="#FFFFFF" transform="translate(0,0)"/>
<path d="" fill="#FFFFFF" transform="translate(0,0)"/>
<path d="" fill="#FFFFFF" transform="translate(0,0)"/>
<path d="" fill="#FFFFFF" transform="translate(0,0)"/>
<path d="" fill="#FFFFFF" transform="translate(0,0)"/>
<path d="" fill="#FFFFFF" transform="translate(0,0)"/>
<path d="" fill="#FFFFFF" transform="translate(0,0)"/>
<path d="" fill="#FFFFFF" transform="translate(0,0)"/>
<path d="" fill="#FFFFFF" transform="translate(0,0)"/>
<path d="" fill="#FFFFFF" transform="translate(0,0)"/>
<path d="" fill="#FFFFFF" transform="translate(0,0)"/>
<path d="" fill="#FFFFFF" transform="translate(0,0)"/>
<path d="" fill="#FFFFFF" transform="translate(0,0)"/>
<path d="" fill="#FFFFFF" transform="translate(0,0)"/>
<path d="" fill="#FFFFFF" transform="translate(0,0)"/>
</svg>
