<?xml version="1.0" encoding="UTF-8"?>
<svg version="1.1" xmlns="http://www.w3.org/2000/svg" width="440" height="567">
<path d="M0 0 C2.296875 0.09765625 2.296875 0.09765625 5 1 C9.571662 8.27217916 11.91657241 16.45463122 12 25 C12.06058594 26.26457031 12.12117188 27.52914062 12.18359375 28.83203125 C12.91197581 48.49834674 7.05949752 65.09200743 -6 80 C-7.051875 81.21623047 -7.051875 81.21623047 -8.125 82.45703125 C-15.42164231 90.73090244 -23.12491077 99.40057468 -32 106 C-32.66 106 -33.32 106 -34 106 C-34 106.66 -34 107.32 -34 108 C-35.58203125 109.41015625 -35.58203125 109.41015625 -37.8125 111.0625 C-63.97203254 129.26817511 -63.97203254 129.26817511 -79.73828125 155.3984375 C-81.95661078 177.44929525 -75.18931019 202.58201018 -65.73217773 222.28417969 C-65 224 -65 224 -65 226 C-64.34 226 -63.68 226 -63 226 C-60.37124595 231.37180176 -59.3916035 236.04492601 -59 242 C-65.38409225 241.81164945 -68.43177416 238.42154084 -72.75 234.1875 C-73.45519775 233.50896973 -74.16039551 232.83043945 -74.88696289 232.13134766 C-93.21408605 214.25112515 -110.9639817 190.5948439 -112 164.046875 C-112 147.66676496 -105.98001233 134.77088303 -96 122 C-95.34 122 -94.68 122 -94 122 C-93.73123047 121.40670898 -93.46246094 120.81341797 -93.18554688 120.20214844 C-91.99709268 117.99459967 -90.79257611 116.53457118 -89.03125 114.765625 C-88.46019531 114.19199219 -87.88914063 113.61835938 -87.30078125 113.02734375 C-86.70652344 112.44082031 -86.11226562 111.85429687 -85.5 111.25 C-84.90574219 110.64800781 -84.31148437 110.04601562 -83.69921875 109.42578125 C-83.12816406 108.85730469 -82.55710938 108.28882813 -81.96875 107.703125 C-81.44732422 107.18395508 -80.92589844 106.66478516 -80.38867188 106.12988281 C-79 105 -79 105 -77 105 C-76.505 103.515 -76.505 103.515 -76 102 C-75.34 102 -74.68 102 -74 102 C-73.505 100.515 -73.505 100.515 -73 99 C-71.50048828 97.59301758 -71.50048828 97.59301758 -69.5703125 96.14453125 C-68.86229492 95.60803955 -68.15427734 95.07154785 -67.42480469 94.51879883 C-66.28640137 93.67418091 -66.28640137 93.67418091 -65.125 92.8125 C-64.35575195 92.23459717 -63.58650391 91.65669434 -62.79394531 91.0612793 C-61.24903367 89.90324224 -59.70153507 88.74864771 -58.15136719 87.59765625 C-56.29505503 86.21911486 -54.44683219 84.83075188 -52.6015625 83.4375 C-48.47873305 80.36514491 -44.86672123 77.75167448 -40 76 C-40 75.34 -40 74.68 -40 74 C-39.01 74 -38.02 74 -37 74 C-37 73.34 -37 72.68 -37 72 C-35.1015625 70.2734375 -35.1015625 70.2734375 -32.625 68.375 C-31.81289062 67.74335937 -31.00078125 67.11171875 -30.1640625 66.4609375 C-28 65 -28 65 -26 65 C-26 64.34 -26 63.68 -26 63 C-22.53846154 60 -22.53846154 60 -20 60 C-19.5359375 59.071875 -19.5359375 59.071875 -19.0625 58.125 C-18.375 56.75 -17.6875 55.375 -17 54 C-16.34 54 -15.68 54 -15 54 C-14.73058594 53.29101562 -14.46117187 52.58203125 -14.18359375 51.8515625 C-12.55855122 47.93644354 -10.53545829 44.25801675 -8.53515625 40.5234375 C-4.7383094 31.80904601 -3.39569038 22.8266916 -2.375 13.4375 C-2.13602031 11.310835 -1.89399213 9.18450961 -1.6484375 7.05859375 C-1.49640869 5.67111938 -1.49640869 5.67111938 -1.34130859 4.25561523 C-1 2 -1 2 0 0 Z " fill="#FEFEFE" transform="translate(267,50)"/>
<path d="M0 0 C1.0703125 1.8359375 1.0703125 1.8359375 2 4 C0.70007475 7.03315891 -0.34449751 8.60669851 -3.1875 10.3125 C-3.785625 10.539375 -4.38375 10.76625 -5 11 C-5 12.65 -5 14.3 -5 16 C15.12255196 22.60821356 34.35216394 26.10427952 55.48730469 27.79788208 C57.31812987 27.94515126 59.14866001 28.09610214 60.97900391 28.24923706 C78.630804 29.71091526 96.16485636 30.36855614 113.875 30.3125 C115.11813965 30.31034485 116.3612793 30.3081897 117.64208984 30.30596924 C156.20091097 30.19989692 193.95731062 27.27082367 232 21 C232.74994232 20.87824402 233.49988464 20.75648804 234.27255249 20.63104248 C243.55740558 19.11412594 252.64907029 17.27738783 261.6875 14.625 C263.21407227 14.20734375 263.21407227 14.20734375 264.77148438 13.78125 C270.74562785 12.04870937 274.4188511 10.15696845 279 6 C282.8125 5.625 282.8125 5.625 286 6 C286.33 6.33 286.66 6.66 287 7 C286.91761887 11.86048661 286.61873977 14.1406392 283.75 18.125 C275.92804394 24.90767518 264.90889982 27.8577914 255.3125 31.25 C254.35093994 31.59144043 253.38937988 31.93288086 252.39868164 32.28466797 C246.31989848 34.37850001 240.33140549 35.90299075 234 37 C233.31204346 37.12648926 232.62408691 37.25297852 231.9152832 37.38330078 C227.69635965 38.15719541 223.46796006 38.87910783 219.24121094 39.60888672 C217.10945828 39.98089846 214.98047995 40.36604884 212.8515625 40.75390625 C191.24775539 44.61530374 169.49499664 46.41805894 147.57543945 47.08081055 C144.06607666 47.18739138 140.55756625 47.31020862 137.04882812 47.43554688 C113.41226624 48.24350878 89.83096969 48.28111735 66.20385742 47.20043945 C63.14070302 47.06035995 60.0772658 46.92891035 57.01367188 46.79882812 C-20.77131601 43.44271512 -20.77131601 43.44271512 -37.55859375 25.1484375 C-39.9629979 21.56463728 -40.62002539 18.25859541 -40 14 C-36.42306277 7.29324269 -29.06888292 4.7778617 -22.171875 2.66015625 C-21.45515625 2.44230469 -20.7384375 2.22445313 -20 2 C-18.9275 1.608125 -17.855 1.21625 -16.75 0.8125 C-11.17976926 -0.39438333 -5.67673286 -0.15365593 0 0 Z " fill="#FEFEFD" transform="translate(84,445)"/>
<path d="M0 0 C1.0725 -0.01675781 2.145 -0.03351563 3.25 -0.05078125 C6 0.3125 6 0.3125 7.875 1.83203125 C8.24625 2.32058594 8.6175 2.80914062 9 3.3125 C3.09800892 7.51543305 -2.89131306 10.83424307 -9.49609375 13.8203125 C-12.18251147 15.42126659 -12.96168626 16.41516943 -14 19.3125 C-12.66809481 19.77496708 -11.3343693 20.23219155 -10 20.6875 C-8.88625 21.07035156 -8.88625 21.07035156 -7.75 21.4609375 C-1.47905288 23.40279329 4.39978574 24.63622974 10.96411133 24.92919922 C11.69763982 24.96679792 12.43116831 25.00439663 13.18692493 25.04313469 C20.98176912 25.4124323 28.77220881 25.45780891 36.57421875 25.4453125 C38.11473099 25.44599042 39.65524312 25.44696444 41.195755 25.44821167 C44.40500927 25.44967153 47.61423539 25.44759391 50.82348633 25.44287109 C54.83772055 25.4372368 58.85188758 25.44052572 62.86611938 25.44630241 C78.39953322 25.46535214 93.92269076 25.38201623 109.44921875 24.890625 C110.61788986 24.85502472 111.78656097 24.81942444 112.99064636 24.78274536 C130.00821369 24.17031242 146.94238768 21.98384019 163.73681641 19.22705078 C167.87701546 18.55811817 171.7872153 18.17185059 176 18.3125 C176 19.6325 176 20.9525 176 22.3125 C169.48971698 27.46647406 161.64986988 29.88051661 153.90966797 32.62792969 C152.24629978 33.22420742 150.59286018 33.8480398 148.94140625 34.4765625 C138.14930726 38.58037953 127.14915857 40.77290325 115.75 42.4375 C114.63109375 42.60636719 113.5121875 42.77523437 112.359375 42.94921875 C103.21019439 44.31943802 94.19034033 45.45269029 84.94921875 45.8828125 C83.50938629 45.95158348 83.50938629 45.95158348 82.04046631 46.02174377 C78.9230545 46.16658704 75.80539832 46.30355168 72.6875 46.4375 C71.62242218 46.48363434 70.55734436 46.52976868 69.45999146 46.57730103 C55.43431309 47.16687164 41.46979478 47.47136551 27.4375 47 C26.74876801 46.97689758 26.06003601 46.95379517 25.35043335 46.92999268 C20.89745431 46.77121459 16.44924458 46.55264222 12 46.3125 C10.73341553 46.25118896 9.46683105 46.18987793 8.16186523 46.12670898 C0.00840727 45.67353676 -7.82003493 44.65900379 -15.8125 43 C-16.85341797 42.79955078 -17.89433594 42.59910156 -18.96679688 42.39257812 C-25.66732006 41.03566967 -31.74768198 39.06198335 -38 36.3125 C-39.0209375 35.89226562 -40.041875 35.47203125 -41.09375 35.0390625 C-47.52766757 32.09366517 -47.52766757 32.09366517 -49.625 28.625 C-49.74875 27.531875 -49.8725 26.43875 -50 25.3125 C-50.12375 24.53390625 -50.2475 23.7553125 -50.375 22.953125 C-50.73027636 19.28933754 -50.83640547 16.45657745 -48.60424805 13.40332031 C-42.92597985 8.33559511 -37.55463291 6.56580442 -30.1875 5 C-29.17107422 4.76216797 -28.15464844 4.52433594 -27.10742188 4.27929688 C-8.64664728 0.03178914 -8.64664728 0.03178914 0 0 Z " fill="#FEFEFD" transform="translate(133,301.6875)"/>
<path d="M0 0 C-0.48405436 4.31180732 -1.62004866 6.0589554 -4.9375 8.8125 C-5.64777344 9.41707031 -6.35804688 10.02164063 -7.08984375 10.64453125 C-9 12 -9 12 -11 12 C-11.33 12.99 -11.66 13.98 -12 15 C-13.55329607 16.35241443 -15.16688469 17.63657208 -16.8125 18.875 C-20.46953328 21.62992906 -23.22773534 24.3569599 -26 28 C-28.3750725 30.49687109 -30.70537719 32.77336707 -33.4375 34.875 C-37.16788622 37.96849102 -40.81432276 41.62864552 -43 46 C-43.66 46 -44.32 46 -45 46 C-45.33 46.99 -45.66 47.98 -46 49 C-46.66 49 -47.32 49 -48 49 C-48.71372719 50.64706275 -49.36236461 52.32201212 -50 54 C-50.31066406 54.69351563 -50.62132812 55.38703125 -50.94140625 56.1015625 C-54.34141817 64.83632115 -51.36134216 71.43110092 -47.85546875 79.69921875 C-45.80317951 84.07148714 -43.38716994 87.96152557 -40.5625 91.875 C-35.41401926 99.02879709 -30.31612126 106.99054396 -30 116 C-29.94392578 117.50046875 -29.94392578 117.50046875 -29.88671875 119.03125 C-29.66107381 129.38716516 -31.23420833 136.60734487 -36.8125 145.25 C-37.45155273 146.29027344 -37.45155273 146.29027344 -38.10351562 147.3515625 C-40.65345517 151.37900106 -43.11640749 154.14778779 -47 157 C-48.14037391 158.21705849 -49.2496462 159.46468843 -50.3125 160.75 C-50.82425781 161.36359375 -51.33601563 161.9771875 -51.86328125 162.609375 C-52.23839844 163.06828125 -52.61351562 163.5271875 -53 164 C-54.32 163.67 -55.64 163.34 -57 163 C-57.21117464 156.51224583 -56.85368281 151.2561795 -55 145 C-54.11962493 138.20853519 -55.52315715 132.87384713 -59 127 C-60.97901574 124.77022004 -60.97901574 124.77022004 -63 123 C-64 121.33333333 -65 119.66666667 -66 118 C-67.08007229 116.70560527 -68.16387488 115.41432002 -69.25 114.125 C-80.73128406 99.50582263 -84.87407511 81.2819706 -83 63 C-82.18176126 59.52364104 -81.01236046 56.93264726 -79 54 C-78.4946875 53.23945313 -77.989375 52.47890625 -77.46875 51.6953125 C-76.05380153 49.69080217 -74.69353481 47.77579221 -73 46 C-72.34 46 -71.68 46 -71 46 C-70.79246094 45.47019531 -70.58492187 44.94039062 -70.37109375 44.39453125 C-68.4357714 41.01460931 -65.80017299 38.41769516 -63.0625 35.6875 C-62.48274414 35.10863037 -61.90298828 34.52976074 -61.30566406 33.93334961 C-56.32499115 29.08679268 -51.00829061 25.47945555 -45 22 C-43.51320786 21.0113731 -42.03373219 20.01163722 -40.5625 19 C-32.36923717 13.53782478 -23.89599656 8.83220724 -15 4.625 C-14.26974609 4.27904785 -13.53949219 3.9330957 -12.78710938 3.57666016 C-8.46114616 1.56760236 -4.84329484 0 0 0 Z " fill="#FEFEFD" transform="translate(301,146)"/>
<path d="M0 0 C2.53778143 1.03405713 4.81253481 2.27666429 7.1875 3.63916016 C16.84553601 8.31224112 28.77404337 8.73261621 39.3125 9.6875 C39.99441406 9.74970734 40.67632812 9.81191467 41.37890625 9.87600708 C64.24571929 11.94063186 85.64286447 9.75417122 108.23828125 6.18359375 C115.65573171 5.03955903 121.19625167 4.55321661 128 8 C129.20521941 8.57788725 130.41099975 9.15460538 131.6171875 9.73046875 C141.53892698 14.53892698 141.53892698 14.53892698 143 16 C143.04080783 17.99958364 143.04254356 20.00045254 143 22 C136.29092128 25.9110528 129.92531073 27.91761804 122.296875 29.32421875 C119.06167781 29.91172935 119.06167781 29.91172935 116.29199219 30.94165039 C99.94128806 36.19827323 82.47665218 35.40716598 65.52282715 35.26428223 C62.81124813 35.24513705 60.09973729 35.24112483 57.38809967 35.2375679 C54.10245409 35.23237681 50.81686473 35.21785846 47.53125 35.203125 C46.33520142 35.19887512 45.13915283 35.19462524 43.90686035 35.19024658 C24.51610431 35.02669687 7.92832179 31.10185184 -10 24 C-10.68852051 23.7429126 -11.37704102 23.4858252 -12.08642578 23.22094727 C-14.00390625 22.47265625 -14.00390625 22.47265625 -17 21 C-18.7385366 15.67573167 -18.3151404 9.44032901 -17 4 C-13.11031411 -1.63333819 -6.18185792 -0.91755879 0 0 Z " fill="#FEFEFD" transform="translate(147,411)"/>
<path d="M0 0 C4.22016482 1.73386617 8.37542944 3.58927949 11.83984375 6.59765625 C14.93241974 8.60531408 17.72663136 8.73077549 21.375 9.125 C22.66148437 9.27195312 23.94796875 9.41890625 25.2734375 9.5703125 C60.4072863 12.92310788 98.55297353 12.68986501 133.05371094 4.45654297 C147.89887075 0.97429901 147.89887075 0.97429901 153.375 3.4375 C155.1875 4.59375 155.1875 4.59375 157 6 C157.721875 6.5465625 158.44375 7.093125 159.1875 7.65625 C162.90811329 10.68589225 165.82729294 13.16258338 167 18 C166 19.5 166 19.5 164 21 C162.05567556 21.00971644 160.11101922 21.01421865 158.16699219 20.97885132 C154.90848944 21.01065256 151.82223279 21.60315139 148.625 22.20703125 C147.22666398 22.46527814 145.82830703 22.7234117 144.42993164 22.98144531 C143.70774445 23.11732056 142.98555725 23.2531958 142.2414856 23.39318848 C121.52928897 27.26778965 100.97756133 29.96138597 79.9375 31.1875 C79.20387238 31.23056274 78.47024475 31.27362549 77.71438599 31.31799316 C48.51828331 32.98917679 13.88105177 34.03102213 -12.375 18.75 C-15.04460309 15.95327295 -15.54779625 15.27460656 -15.9375 11.625 C-15.61690419 7.63758962 -14.29564426 5.68958031 -11.4375 2.9375 C-7.46409437 -0.04777323 -5.01817655 -1.03824342 0 0 Z " fill="#FEFEFD" transform="translate(131,363)"/>
<path d="M0 0 C2 1.25 2 1.25 3 3 C2.6875 5.1875 2.6875 5.1875 2 7 C1.34 7 0.68 7 0 7 C-0.3403125 7.86625 -0.3403125 7.86625 -0.6875 8.75 C-7.7784708 20.90594994 -28.11037152 26.9563767 -40.92578125 30.33984375 C-51.07792004 32.86366773 -61.34384083 34.65322443 -71.6875 36.1875 C-72.71069336 36.34234863 -73.73388672 36.49719727 -74.78808594 36.65673828 C-78.51891066 37.17606999 -82.25386767 37.61027754 -86 38 C-87.27401169 38.13340286 -87.27401169 38.13340286 -88.57376099 38.26950073 C-110.09638609 40.41363746 -131.61040722 40.2735734 -153.2130127 40.19561768 C-157.06504808 40.18464392 -160.91704899 40.18515366 -164.76909733 40.18575573 C-168.48956813 40.18548494 -172.21001588 40.18002356 -175.93047905 40.17275429 C-177.70116439 40.16957727 -179.47185232 40.16760247 -181.24254036 40.16686058 C-183.68916518 40.1647042 -186.13567511 40.15598451 -188.58227539 40.14526367 C-189.30877792 40.14571686 -190.03528046 40.14617004 -190.78379822 40.14663696 C-195.77097643 40.11451178 -195.77097643 40.11451178 -198 39 C-199.70836685 38.82523708 -201.42216072 38.70216483 -203.13671875 38.60546875 C-215.24304554 37.83762759 -226.43502693 36.85499102 -238 33 C-238.95777344 32.69449219 -239.91554687 32.38898438 -240.90234375 32.07421875 C-242.94407843 31.41041903 -244.97415642 30.71082231 -247 30 C-247 28.68 -247 27.36 -247 26 C-245.29589966 26.00785522 -245.29589966 26.00785522 -243.55737305 26.01586914 C-211.08426248 26.14795121 -178.60928925 25.99642235 -146.13698483 25.76267529 C-140.10943232 25.71933924 -134.08194177 25.68058896 -128.05429077 25.65383911 C-122.26238609 25.62776591 -116.47074101 25.58731246 -110.67899895 25.53687668 C-108.52761947 25.5204174 -106.37619693 25.50872281 -104.22476387 25.50236893 C-85.21620683 25.44039817 -67.24286669 23.50026345 -49 18 C-48.35611328 17.80647949 -47.71222656 17.61295898 -47.04882812 17.41357422 C-43.02998025 16.19909799 -39.02606594 14.94250435 -35.03027344 13.65429688 C-33.64380517 13.2074793 -32.25638823 12.76359754 -30.86816406 12.32226562 C-28.78483826 11.65917333 -26.70455977 10.98729901 -24.625 10.3125 C-23.40039062 9.91675781 -22.17578125 9.52101563 -20.9140625 9.11328125 C-17.92727167 8.19939921 -17.92727167 8.19939921 -16 6 C-14.68 6 -13.36 6 -12 6 C-11.731875 5.38125 -11.46375 4.7625 -11.1875 4.125 C-8.52965004 -0.63115257 -4.95635905 -0.44253206 0 0 Z " fill="#FDFDFC" transform="translate(384,476)"/>
<path d="M0 0 C8.15507046 10.13873624 13.21610112 21.83793827 12.6953125 35.03125 C11.15405127 46.48061915 3.83682308 56.43514789 -4.6875 63.875 C-7.37512615 65.73495004 -10.17349305 67.28864564 -13.0625 68.8125 C-13.83835449 69.23217041 -14.61420898 69.65184082 -15.41357422 70.08422852 C-43.1997981 84.93819876 -43.1997981 84.93819876 -54.1875 85.5625 C-55.2290625 85.62824219 -56.270625 85.69398438 -57.34375 85.76171875 C-58.50390625 85.81779297 -58.50390625 85.81779297 -59.6875 85.875 C-58.13165086 82.3872434 -56.28136043 80.54347276 -53.265625 78.171875 C-51.44427629 76.72845154 -51.44427629 76.72845154 -49.125 74.1875 C-46.6875 71.875 -46.6875 71.875 -44 70.8125 C-41.54729828 70.11952352 -41.54729828 70.11952352 -40.78515625 68.00390625 C-39.48070729 65.47392517 -38.1363582 64.48854683 -35.8125 62.875 C-33.41886456 61.16649934 -31.40246413 59.58996413 -29.3125 57.5 C-28.77625 56.96375 -28.24 56.4275 -27.6875 55.875 C-27.0275 55.875 -26.3675 55.875 -25.6875 55.875 C-25.44 55.359375 -25.1925 54.84375 -24.9375 54.3125 C-23.29168384 51.10315849 -21.4898904 47.99914336 -19.6875 44.875 C-19.0275 44.875 -18.3675 44.875 -17.6875 44.875 C-17.419375 44.029375 -17.15125 43.18375 -16.875 42.3125 C-15.6875 38.875 -15.6875 38.875 -14 35.5 C-11.90124761 29.70344579 -12.81117895 25.87301199 -15.25 20.3125 C-21.76191723 10.32907288 -30.80732227 7.73719765 -41.71630859 4.48974609 C-44.0970335 3.74728073 -46.3945051 2.85377337 -48.6875 1.875 C-48.375 -0.5 -48.375 -0.5 -47.6875 -3.125 C-44.69619043 -5.11920638 -43.64390357 -5.44688983 -40.22265625 -5.79296875 C-38.9073291 -5.92711182 -38.9073291 -5.92711182 -37.56542969 -6.06396484 C-36.63633789 -6.14598145 -35.70724609 -6.22799805 -34.75 -6.3125 C-33.3273584 -6.43939209 -33.3273584 -6.43939209 -31.87597656 -6.56884766 C-20.13995099 -7.52177281 -9.60794154 -7.59697703 0 0 Z " fill="#FEFEFD" transform="translate(382.6875,302.125)"/>
<path d="" fill="#FFFFFF" transform="translate(0,0)"/>
<path d="" fill="#FFFFFF" transform="translate(0,0)"/>
<path d="" fill="#FFFFFF" transform="translate(0,0)"/>
<path d="" fill="#FFFFFF" transform="translate(0,0)"/>
<path d="" fill="#FFFFFF" transform="translate(0,0)"/>
<path d="" fill="#FFFFFF" transform="translate(0,0)"/>
<path d="" fill="#FFFFFF" transform="translate(0,0)"/>
<path d="" fill="#FFFFFF" transform="translate(0,0)"/>
<path d="" fill="#FFFFFF" transform="translate(0,0)"/>
<path d="" fill="#FFFFFF" transform="translate(0,0)"/>
<path d="" fill="#FFFFFF" transform="translate(0,0)"/>
<path d="" fill="#FFFFFF" transform="translate(0,0)"/>
<path d="" fill="#FFFFFF" transform="translate(0,0)"/>
<path d="" fill="#FFFFFF" transform="translate(0,0)"/>
<path d="" fill="#FFFFFF" transform="translate(0,0)"/>
<path d="" fill="#FFFFFF" transform="translate(0,0)"/>
<path d="" fill="#FFFFFF" transform="translate(0,0)"/>
<path d="" fill="#FFFFFF" transform="translate(0,0)"/>
<path d="" fill="#FFFFFF" transform="translate(0,0)"/>
<path d="" fill="#FFFFFF" transform="translate(0,0)"/>
<path d="" fill="#FFFFFF" transform="translate(0,0)"/>
<path d="" fill="#FFFFFF" transform="translate(0,0)"/>
<path d="" fill="#FFFFFF" transform="translate(0,0)"/>
<path d="" fill="#FFFFFF" transform="translate(0,0)"/>
<path d="" fill="#FFFFFF" transform="translate(0,0)"/>
<path d="" fill="#FFFFFF" transform="translate(0,0)"/>
<path d="" fill="#FFFFFF" transform="translate(0,0)"/>
<path d="" fill="#FFFFFF" transform="translate(0,0)"/>
<path d="" fill="#FFFFFF" transform="translate(0,0)"/>
<path d="" fill="#FFFFFF" transform="translate(0,0)"/>
<path d="" fill="#FFFFFF" transform="translate(0,0)"/>
<path d="" fill="#FFFFFF" transform="translate(0,0)"/>
<path d="" fill="#FFFFFF" transform="translate(0,0)"/>
<path d="" fill="#FFFFFF" transform="translate(0,0)"/>
<path d="" fill="#FFFFFF" transform="translate(0,0)"/>
<path d="" fill="#FFFFFF" transform="translate(0,0)"/>
<path d="" fill="#FFFFFF" transform="translate(0,0)"/>
<path d="" fill="#FFFFFF" transform="translate(0,0)"/>
<path d="" fill="#FFFFFF" transform="translate(0,0)"/>
<path d="" fill="#FFFFFF" transform="translate(0,0)"/>
<path d="" fill="#FFFFFF" transform="translate(0,0)"/>
<path d="" fill="#FFFFFF" transform="translate(0,0)"/>
<path d="" fill="#FFFFFF" transform="translate(0,0)"/>
<path d="" fill="#FFFFFF" transform="translate(0,0)"/>
<path d="" fill="#FFFFFF" transform="translate(0,0)"/>
<path d="" fill="#FFFFFF" transform="translate(0,0)"/>
<path d="" fill="#FFFFFF" transform="translate(0,0)"/>
<path d="" fill="#FFFFFF" transform="translate(0,0)"/>
<path d="" fill="#FFFFFF" transform="translate(0,0)"/>
<path d="" fill="#FFFFFF" transform="translate(0,0)"/>
<path d="" fill="#FFFFFF" transform="translate(0,0)"/>
<path d="" fill="#FFFFFF" transform="translate(0,0)"/>
<path d="" fill="#FFFFFF" transform="translate(0,0)"/>
<path d="" fill="#FFFFFF" transform="translate(0,0)"/>
<path d="" fill="#FFFFFF" transform="translate(0,0)"/>
<path d="" fill="#FFFFFF" transform="translate(0,0)"/>
<path d="" fill="#FFFFFF" transform="translate(0,0)"/>
<path d="" fill="#FFFFFF" transform="translate(0,0)"/>
<path d="" fill="#FFFFFF" transform="translate(0,0)"/>
<path d="" fill="#FFFFFF" transform="translate(0,0)"/>
<path d="" fill="#FFFFFF" transform="translate(0,0)"/>
<path d="" fill="#FFFFFF" transform="translate(0,0)"/>
<path d="" fill="#FFFFFF" transform="translate(0,0)"/>
<path d="" fill="#FFFFFF" transform="translate(0,0)"/>
</svg>
