<?xml version="1.0" encoding="UTF-8"?>
<svg version="1.1" xmlns="http://www.w3.org/2000/svg" width="457" height="546">
<path d="M0 0 C0.79825195 0.35046387 1.59650391 0.70092773 2.41894531 1.06201172 C31.54332427 14.03120423 31.54332427 14.03120423 43 24 C43 24.66 43 25.32 43 26 C43.71929687 26.24878906 44.43859375 26.49757812 45.1796875 26.75390625 C48.27965201 28.12355816 50.50957611 29.78997304 53.125 31.9375 C53.97320312 32.62714844 54.82140625 33.31679687 55.6953125 34.02734375 C59.51541096 37.29708904 59.51541096 37.29708904 61 39 C61 39.66 61 40.32 61 41 C61.61875 41.2475 62.2375 41.495 62.875 41.75 C65.38710296 43.22770762 65.76107344 44.43955177 67 47 C67.99 47.33 68.98 47.66 70 48 C70 48.66 70 49.32 70 50 C70.99 50.33 71.98 50.66 73 51 C74.82421875 52.99609375 74.82421875 52.99609375 76.6875 55.4375 C77.62142578 56.64212891 77.62142578 56.64212891 78.57421875 57.87109375 C80 60 80 60 80 62 C80.66 62 81.32 62 82 62 C84.60142416 65.12747392 86.75308333 68.61253818 89 72 C90.07894531 73.61068359 90.07894531 73.61068359 91.1796875 75.25390625 C111 105.20651778 111 105.20651778 111 116 C110.01 115.67 109.02 115.34 108 115 C108 114.34 108 113.68 108 113 C107.38125 112.7525 106.7625 112.505 106.125 112.25 C103.61289704 110.77229238 103.23892656 109.56044823 102 107 C101.01 106.67 100.02 106.34 99 106 C99 105.34 99 104.68 99 104 C98.47148437 103.77441406 97.94296875 103.54882812 97.3984375 103.31640625 C94.18029397 101.5500962 91.45983618 99.24732279 88.625 96.9375 C77.73244436 88.26535542 66.61767168 81.51953626 53.91015625 75.82421875 C51.31759545 74.65367199 48.86782422 73.37711916 46.421875 71.92578125 C43.05283233 70.02973326 39.8436003 68.7368065 36.1875 67.5 C32.13050041 66.1180991 28.15502143 64.66666197 24.19140625 63.03515625 C19.12808049 60.99218604 14.0060302 59.40314738 8.75 57.9375 C7.83033447 57.67928467 6.91066895 57.42106934 5.96313477 57.1550293 C-1.30763639 55.140713 -8.57161237 53.34033951 -16 52 C-16.68191406 51.8752832 -17.36382812 51.75056641 -18.06640625 51.62207031 C-72.0184445 41.98777777 -130.29032298 44.95567867 -181.83007812 64.19189453 C-183.74014499 64.90322681 -185.65855109 65.59208101 -187.578125 66.27734375 C-196.4014493 69.50459414 -204.70534386 73.61739744 -213 78 C-213.67498535 78.35610352 -214.3499707 78.71220703 -215.04541016 79.07910156 C-232.47161941 88.3624957 -248.35923795 99.78563093 -262.00390625 114.12890625 C-264 116 -264 116 -266 116 C-265.57396892 111.63318148 -264.37221775 108.68366816 -262.09033203 104.95922852 C-260.90245352 102.82471776 -260.08417833 100.69463699 -259.2421875 98.40234375 C-257.04153877 92.81525737 -254.14208605 87.87624972 -250.9375 82.8125 C-250.0868396 81.45427124 -250.0868396 81.45427124 -249.21899414 80.06860352 C-235.9475352 59.11084279 -235.9475352 59.11084279 -229 53 C-228.34 53 -227.68 53 -227 53 C-226.62875 52.1646875 -226.62875 52.1646875 -226.25 51.3125 C-221.29008764 42.13666214 -211.34235322 34.96989961 -203 29 C-202.34 29 -201.68 29 -201 29 C-200.67 28.01 -200.34 27.02 -200 26 C-198.2409668 24.57714844 -198.2409668 24.57714844 -195.94921875 23.109375 C-195.11205322 22.56829102 -194.2748877 22.02720703 -193.41235352 21.46972656 C-192.51315186 20.9022168 -191.6139502 20.33470703 -190.6875 19.75 C-189.76831787 19.16444336 -188.84913574 18.57888672 -187.90209961 17.97558594 C-186.07869014 16.81881484 -184.25233732 15.66666826 -182.42285156 14.51953125 C-180.52167252 13.32717551 -178.6300624 12.11956048 -176.7421875 10.90625 C-161.47007638 1.46692768 -144.24967998 -4.38144839 -127 -9 C-125.90042969 -9.30550781 -124.80085937 -9.61101562 -123.66796875 -9.92578125 C-83.71662956 -20.13614972 -37.79572628 -16.64748469 0 0 Z " fill="#F7F7F7" transform="translate(313,86)"/>
<path d="M0 0 C3.24271506 0.5590888 4.93057424 1.4132178 7 4 C7 4.66 7 5.32 7 6 C7.53625 6.22042969 8.0725 6.44085938 8.625 6.66796875 C11.16275407 8.09128148 13.1648538 9.83181232 15.31225586 11.78222656 C32.69218421 27.5405646 53.46054216 38.73901309 75.16992188 47.27441406 C76.69886401 47.88060617 78.21796445 48.51154507 79.734375 49.1484375 C96.66366838 56.24965117 114.98714681 60.76438968 133 64 C133.72703125 64.13293457 134.4540625 64.26586914 135.203125 64.40283203 C195.68680106 75.29349394 265.44921176 67.92644703 320 39 C322.37408167 37.85226516 324.74909447 36.70645452 327.125 35.5625 C344.15713535 27.02742325 360.94982616 14.80449929 373 0 C374.98 0.495 374.98 0.495 377 1 C373.9423135 9.02642706 370.24806633 16.38080798 365.90234375 23.7578125 C364.39060962 26.33427929 362.95926451 28.92363002 361.5625 31.5625 C356.00274999 41.5849256 348.88653082 51.67996009 341 60 C340.34 60 339.68 60 339 60 C338.71125 60.598125 338.4225 61.19625 338.125 61.8125 C337 64 337 64 335 67 C334.34 67 333.68 67 333 67 C332.67 67.99 332.34 68.98 332 70 C331.34 70 330.68 70 330 70 C330 70.66 330 71.32 330 72 C328.5390625 73.5078125 328.5390625 73.5078125 326.625 75.125 C325.99851562 75.66382813 325.37203125 76.20265625 324.7265625 76.7578125 C323 78 323 78 321 78 C321 78.66 321 79.32 321 80 C319.1015625 81.7265625 319.1015625 81.7265625 316.625 83.625 C315.81289063 84.25664062 315.00078125 84.88828125 314.1640625 85.5390625 C312 87 312 87 310 87 C310 87.66 310 88.32 310 89 C308.68 89.33 307.36 89.66 306 90 C306 90.66 306 91.32 306 92 C304.32617187 93.29345703 304.32617187 93.29345703 301.96875 94.7578125 C301.10338623 95.29720459 300.23802246 95.83659668 299.34643555 96.39233398 C298.40711182 96.96411377 297.46778809 97.53589355 296.5 98.125 C295.54327393 98.71031494 294.58654785 99.29562988 293.60083008 99.89868164 C280.5556462 107.78937921 267.37885826 113.96977236 253 119 C252.14792969 119.30679688 251.29585937 119.61359375 250.41796875 119.9296875 C230.37386435 126.93609516 209.95204295 128.58850284 188.875 128.5 C187.79694092 128.49890228 186.71888184 128.49780457 185.6081543 128.49667358 C169.49961461 128.44960318 154.54537441 127.51985666 139 123 C137.48409765 122.60799488 135.96719722 122.21982461 134.44921875 121.8359375 C112.48487969 116.06484706 91.45502831 106.20047164 73 93 C72.05125 92.32582031 71.1025 91.65164063 70.125 90.95703125 C57.40756864 81.67262989 44.83951404 71.37610393 35 59 C35 58.34 35 57.68 35 57 C34.34 57 33.68 57 33 57 C26.87204974 50.43070153 22.02466097 42.43687962 17 35 C16.53722656 34.32453125 16.07445313 33.6490625 15.59765625 32.953125 C0 9.21527778 0 9.21527778 0 0 Z " fill="#F6F6F6" transform="translate(47,344)"/>
<path d="M0 0 C0.68642578 -0.020625 1.37285156 -0.04125 2.08007812 -0.0625 C8.46831761 -0.11084997 12.8346072 1.6814048 18.1875 5.25 C18.1875 5.91 18.1875 6.57 18.1875 7.25 C19.1775 7.58 20.1675 7.91 21.1875 8.25 C21.1875 8.91 21.1875 9.57 21.1875 10.25 C21.8475 10.25 22.5075 10.25 23.1875 10.25 C30.15533061 22.98889642 32.32238591 35.02273419 28.34765625 49.2578125 C24.65572351 58.77976696 18.35359852 64.98442662 9.1875 69.25 C3.0532395 71.2947535 -5.25932555 71.35091014 -11.47265625 69.42578125 C-14.41612406 67.94579463 -17.07370349 66.07586434 -19.8125 64.25 C-21.14068961 65.35069271 -21.14068961 65.35069271 -20.91015625 68.1015625 C-20.89855469 69.34679687 -20.88695312 70.59203125 -20.875 71.875 C-20.87121338 72.53709473 -20.86742676 73.19918945 -20.86352539 73.88134766 C-20.85126703 76.00429641 -20.83263579 78.12711219 -20.8125 80.25 C-20.78602081 83.04166291 -20.76596639 85.83325941 -20.75 88.625 C-20.73839844 89.87023437 -20.72679687 91.11546875 -20.71484375 92.3984375 C-20.8125 95.25 -20.8125 95.25 -21.8125 96.25 C-23.99889453 96.32258946 -26.18750389 96.33373783 -28.375 96.3125 C-29.57253906 96.30347656 -30.77007812 96.29445313 -32.00390625 96.28515625 C-33.39416016 96.26775391 -33.39416016 96.26775391 -34.8125 96.25 C-36.11385653 92.34593042 -35.95171624 88.64052878 -35.94189453 84.57177734 C-35.94364685 83.68537064 -35.94539917 82.79896393 -35.94720459 81.88569641 C-35.95161016 78.9524236 -35.94869015 76.01921094 -35.9453125 73.0859375 C-35.94598579 71.05237822 -35.94695603 69.01881902 -35.94821167 66.98526001 C-35.94968679 62.72323846 -35.94753959 58.46123786 -35.94287109 54.19921875 C-35.93716668 48.72328721 -35.9404585 43.2474046 -35.94644356 37.77147484 C-35.950048 33.57318754 -35.94891125 29.37491194 -35.94631577 25.1766243 C-35.94564655 23.15670389 -35.94647474 21.13678244 -35.94879532 19.11686325 C-35.95132071 16.30102449 -35.94748319 13.48526632 -35.94189453 10.66943359 C-35.94391876 9.8268248 -35.94594299 8.984216 -35.94802856 8.11607361 C-35.92676396 2.36426396 -35.92676396 2.36426396 -34.8125 1.25 C-32.79285801 1.17755947 -30.77082876 1.16622812 -28.75 1.1875 C-27.09291016 1.20103516 -27.09291016 1.20103516 -25.40234375 1.21484375 C-24.54769531 1.22644531 -23.69304687 1.23804688 -22.8125 1.25 C-22.1525 3.56 -21.4925 5.87 -20.8125 8.25 C-19.8225 7.92 -18.8325 7.59 -17.8125 7.25 C-17.4825 6.26 -17.1525 5.27 -16.8125 4.25 C-11.33604929 0.40168328 -6.56114718 0.04846646 0 0 Z M-18.375 19.375 C-21.12894193 24.88288386 -21.02972184 29.52722151 -21.0625 35.5625 C-21.083125 36.50029297 -21.10375 37.43808594 -21.125 38.40429688 C-21.15533294 43.78460174 -20.88435973 47.62778853 -17.8125 52.25 C-13.26681345 56.59804801 -9.70845136 58.98185636 -3.4375 59.5625 C2.27858047 59.06973444 6.4365873 57.36945826 10.4375 53.25 C15.2216797 47.21221172 17.01298712 38.81696523 16.1875 31.25 C14.57371039 23.95286439 12.47216908 17.15223794 5.9375 12.875 C-2.33324924 8.71328541 -13.08970879 11.68730369 -18.375 19.375 Z " fill="#E4E4E3" transform="translate(183.8125,235.75)"/>
<path d="M0 0 C0.804375 0.391875 1.60875 0.78375 2.4375 1.1875 C2.953125 1.455625 3.46875 1.72375 4 2 C4 2.66 4 3.32 4 4 C4.99 4.33 5.98 4.66 7 5 C13.11889808 14.65020244 14.66195617 23.74674511 14 35 C13 36 13 36 11.20933533 36.12025452 C10.42990067 36.11803391 9.650466 36.11581329 8.84741211 36.11352539 C7.96657455 36.11344986 7.085737 36.11337433 6.1782074 36.11329651 C5.22092239 36.10813522 4.26363739 36.10297394 3.27734375 36.09765625 C2.30213272 36.0962413 1.32692169 36.09482635 0.32215881 36.09336853 C-2.80609143 36.08775133 -5.93427123 36.07519593 -9.0625 36.0625 C-11.17773334 36.05748722 -13.29296781 36.05292393 -15.40820312 36.04882812 C-20.60549296 36.03777631 -25.80274145 36.02102146 -31 36 C-30.89031627 37.4306081 -30.76645238 38.8601331 -30.63671875 40.2890625 C-30.56928467 41.08521973 -30.50185059 41.88137695 -30.43237305 42.70166016 C-29.69088988 46.6431184 -27.9225717 48.27226641 -25 51 C-17.38522879 55.50670133 -9.4555372 56.15845975 -0.8359375 54.328125 C1.79741312 53.6068455 4.403517 52.84373142 7 52 C9.70582788 55.83325617 10.32613618 58.32538149 10 63 C-0.83811706 67.88777828 -13.77468334 68.97669911 -25.4296875 66.17578125 C-28.94994838 64.77081066 -31.84581614 63.10278924 -35 61 C-35 60.34 -35 59.68 -35 59 C-35.99 58.67 -36.98 58.34 -38 58 C-44.04407254 52.96327289 -46.45088362 44.94204743 -47.29296875 37.36328125 C-47.59972568 27.3571624 -45.63520011 17.35564154 -40 9 C-39.34 9 -38.68 9 -38 9 C-37.7525 8.4225 -37.505 7.845 -37.25 7.25 C-34.36673299 2.06011938 -30.49561359 -0.19591582 -25.0546875 -2.23828125 C-16.7008649 -4.32139558 -7.55137228 -4.3630151 0 0 Z M-28.875 13.75 C-30.87196346 16.8041794 -31.3027347 17.78998008 -31.6328125 21.203125 C-31.75398438 22.45609375 -31.87515625 23.7090625 -32 25 C-27.60343827 25.02465504 -23.2069128 25.04283842 -18.81030273 25.05493164 C-17.31355082 25.05997121 -15.81680384 25.06680287 -14.32006836 25.07543945 C-12.17300193 25.08752159 -10.02600038 25.09323191 -7.87890625 25.09765625 C-6.5854126 25.10289307 -5.29191895 25.10812988 -3.95922852 25.11352539 C-1.11347596 25.33996932 -1.11347596 25.33996932 0 24 C0.34998112 18.75028321 0.58055163 15.15805995 -3 11 C-7.58587342 7.60645367 -11.07654864 6.32533411 -16.796875 6.6171875 C-21.97329184 7.51663582 -25.14817285 10.18520881 -28.875 13.75 Z " fill="#E8E7E7" transform="translate(388,239)"/>
<path d="M0 0 C4.95 0 9.9 0 15 0 C18.07168662 7.10876046 20.80193292 14.2007538 23.18969727 21.55737305 C24.64795802 26.02419544 26.29425953 30.36709692 28.08984375 34.70703125 C29.33869867 37.85328807 30.37122768 41.05714273 31.38671875 44.28515625 C31.86473976 46.0073048 31.86473976 46.0073048 33 47 C35.2611084 41.10668555 37.26516626 35.21365997 38.9375 29.125 C40.56913162 23.2601194 42.58277371 17.65495881 44.828125 12 C46.37339721 8.04410316 47.69839769 4.04181771 49 0 C53.95 0 58.9 0 64 0 C61.05022025 10.48810579 57.17650137 20.61355834 53.10546875 30.7109375 C51.58718545 34.48987213 50.13008261 38.28721222 48.703125 42.1015625 C36.06146977 75.8177695 36.06146977 75.8177695 27 86 C26.20335937 86.93392578 26.20335937 86.93392578 25.390625 87.88671875 C21.36452436 92.2914206 16.88634229 95.58561387 11 97 C9.35 96.67 7.7 96.34 6 96 C5.34 92.7 4.68 89.4 4 86 C5.08667969 85.36384766 5.08667969 85.36384766 6.1953125 84.71484375 C12.14131272 81.10760361 17.02839361 77.75614575 21 72 C21.66 71.05125 22.32 70.1025 23 69.125 C25.26673009 62.04146846 21.45214797 55.43901393 18.40893555 49.07714844 C17.0513284 46.11210243 15.86987263 43.13535047 14.7265625 40.08203125 C12.8649504 35.19100867 10.92105515 30.3480524 8.88671875 25.52734375 C8.62451035 24.90391083 8.36230194 24.28047791 8.09214783 23.63815308 C7.01656035 21.08282222 5.93928573 18.52828751 4.85229492 15.9777832 C4.04484068 14.0802776 3.24634913 12.17920494 2.44921875 10.27734375 C1.97830811 9.16609131 1.50739746 8.05483887 1.0222168 6.90991211 C0 4 0 4 0 0 Z " fill="#E6E6E6" transform="translate(220,237)"/>
<path d="M0 0 C2.14576637 -0.02685938 4.29162645 -0.04633088 6.4375 -0.0625 C7.63246094 -0.07410156 8.82742187 -0.08570313 10.05859375 -0.09765625 C13 0 13 0 14 1 C14.10661808 2.41060927 14.14618384 3.826381 14.15771484 5.2409668 C14.16797699 6.14247971 14.17823914 7.04399261 14.18881226 7.9728241 C14.19611359 8.95503433 14.20341492 9.93724457 14.2109375 10.94921875 C14.2390175 13.01498173 14.26768203 15.08073683 14.296875 17.14648438 C14.33807735 20.41397793 14.37495009 23.68132622 14.40136719 26.94897461 C14.42903052 30.09520199 14.47491764 33.24075303 14.5234375 36.38671875 C14.52669037 37.35880783 14.52994324 38.33089691 14.53329468 39.33244324 C14.64517107 45.52696109 15.25357543 50.29354419 19.87890625 54.8515625 C23.72431628 56.93360771 27.75316251 56.53687735 32 56 C34.9254644 54.6490712 34.9254644 54.6490712 37 53 C37.66 53 38.32 53 39 53 C40.69080874 48.82933845 42.11396598 45.27018218 42.18945312 40.74389648 C42.21452942 39.46258095 42.21452942 39.46258095 42.2401123 38.15538025 C42.25368774 37.2365657 42.26726318 36.31775116 42.28125 35.37109375 C42.29965942 34.42565201 42.31806885 33.48021027 42.33703613 32.50611877 C42.41576323 28.4567502 42.48354982 24.40721522 42.55224609 20.35766602 C42.60390751 17.4037233 42.66117539 14.44992615 42.71875 11.49609375 C42.73232544 10.57525497 42.74590088 9.6544162 42.7598877 8.70567322 C42.78496399 7.42908592 42.78496399 7.42908592 42.81054688 6.12670898 C42.82933899 5.00110817 42.82933899 5.00110817 42.84851074 3.85276794 C43 2 43 2 44 0 C48.29 0 52.58 0 57 0 C57.15301462 8.71836338 57.30177733 17.43677041 57.4429636 26.15533352 C57.50868731 30.20329784 57.57630653 34.25121233 57.64819336 38.29907227 C57.71744285 42.20229387 57.78179731 46.10556777 57.84269524 50.0089283 C57.86685196 51.50136328 57.89280067 52.99377032 57.92053413 54.48614311 C57.95894837 56.56941224 57.99110544 58.65268787 58.02172852 60.73608398 C58.04171402 61.92411118 58.06169952 63.11213837 58.08229065 64.33616638 C58 67 58 67 57 68 C55.19072719 68.12487758 53.37603893 68.17570846 51.5625 68.1875 C50.57378906 68.20167969 49.58507812 68.21585937 48.56640625 68.23046875 C46 68 46 68 44 66 C43.375 63.375 43.375 63.375 43 61 C42.319375 61.763125 41.63875 62.52625 40.9375 63.3125 C34.34987267 69.3394782 28.4211487 69.59962327 19.67578125 69.41796875 C13.24030588 68.68619844 9.18667745 66.12913331 4.625 61.6875 C0.05680141 54.13240234 -0.41763531 47.71188651 -0.29296875 39.0625 C-0.28872391 37.94182129 -0.28447906 36.82114258 -0.28010559 35.66650391 C-0.26340311 32.11075126 -0.22576568 28.55557941 -0.1875 25 C-0.17244231 22.57943531 -0.1587558 20.15886167 -0.14648438 17.73828125 C-0.1135272 11.82532492 -0.06341202 5.91270397 0 0 Z " fill="#EFEEEF" transform="translate(71,237)"/>
<path d="M0 0 C0 5.94 0 11.88 0 18 C5.61 18 11.22 18 17 18 C17 21.63 17 25.26 17 29 C11.39 29 5.78 29 0 29 C0.06894972 34.60549826 0.15695228 40.21025579 0.26245117 45.81518555 C0.29565962 47.72102631 0.32370425 49.62696446 0.34643555 51.53295898 C0.38005668 54.27630015 0.43237595 57.01875222 0.48828125 59.76171875 C0.49467117 60.61086349 0.5010611 61.46000824 0.50764465 62.33488464 C0.62224189 66.96906182 0.86533388 70.31561637 4 74 C8.04586592 74.97400476 11.86340352 75.02132266 16 75 C16.02687279 76.81242052 16.04633715 78.62495233 16.0625 80.4375 C16.07410156 81.44683594 16.08570313 82.45617187 16.09765625 83.49609375 C16 86 16 86 15 87 C12.25522679 87.18139888 9.55966588 87.27824606 6.8125 87.3125 C6.05646484 87.34150391 5.30042969 87.37050781 4.52148438 87.40039062 C-0.81800713 87.46059304 -3.74565978 86.49715749 -8 83 C-13.98972787 76.67750947 -14.28928575 70.28855152 -14.1953125 62.0078125 C-14.1924826 61.06187225 -14.18965271 60.11593201 -14.18673706 59.1413269 C-14.17558932 56.13575306 -14.15049465 53.13048298 -14.125 50.125 C-14.11496321 48.08073349 -14.10583859 46.03646228 -14.09765625 43.9921875 C-14.07566767 38.99467556 -14.04117509 33.9973892 -14 29 C-14.71027344 29.01160156 -15.42054688 29.02320313 -16.15234375 29.03515625 C-17.07144531 29.04417969 -17.99054688 29.05320313 -18.9375 29.0625 C-19.85402344 29.07410156 -20.77054687 29.08570313 -21.71484375 29.09765625 C-24 29 -24 29 -25 28 C-25.14257189 24.66381769 -25.04228157 21.34024394 -25 18 C-21.37 18 -17.74 18 -14 18 C-14 12.72 -14 7.44 -14 2 C-8.82225349 -0.58887326 -5.64615684 -1.41153921 0 0 Z " fill="#EBEBEB" transform="translate(316,219)"/>
<path d="M0 0 C4.62 0 9.24 0 14 0 C14.06796832 9.23218903 14.1229267 18.46420995 14.15543652 27.69659328 C14.17104516 31.98426602 14.19219488 36.27175764 14.22631836 40.55932617 C14.25908417 44.70256882 14.27688907 48.84563803 14.28463173 52.98900032 C14.2901445 54.56413564 14.30090913 56.13926223 14.31719017 57.71432304 C14.43799656 69.89359872 13.46792392 80.43758251 5 90 C-0.08164586 93.86860781 -6.7122047 95.45463 -13 96 C-14.32 95.67 -15.64 95.34 -17 95 C-17 91.7 -17 88.4 -17 85 C-14.3107985 83.89268174 -11.76910355 82.94345393 -8.9375 82.25 C-5.01104843 80.57916954 -4.03710118 78.71678406 -2 75 C-1.39682542 71.51628246 -1.39682542 71.51628246 -1.4699707 67.75708008 C-1.46123932 67.05876572 -1.45250793 66.36045135 -1.44351196 65.64097595 C-1.4192635 63.35022804 -1.42253804 61.06039057 -1.42578125 58.76953125 C-1.41332842 57.17102024 -1.39899206 55.57252289 -1.38285828 53.9740448 C-1.34490757 49.77813882 -1.32965729 45.58246864 -1.32006836 41.38641357 C-1.3002905 34.66018784 -1.24348359 27.93414106 -1.19130516 21.20810509 C-1.17596331 18.85989681 -1.1687697 16.51177799 -1.16316223 14.16352844 C-1.15614682 12.72726396 -1.14904596 11.29099989 -1.1418457 9.85473633 C-1.13662651 7.97326653 -1.13662651 7.97326653 -1.13130188 6.05378723 C-1 3 -1 3 0 0 Z " fill="#E1E1E1" transform="translate(36,237)"/>
<path d="M0 0 C1 1 1 1 1.09765625 3.72265625 C1.08605469 4.82480469 1.07445312 5.92695313 1.0625 7.0625 C1.05347656 8.16722656 1.04445313 9.27195313 1.03515625 10.41015625 C1.02355469 11.26480469 1.01195312 12.11945313 1 13 C0.34773438 13.10957031 -0.30453125 13.21914062 -0.9765625 13.33203125 C-9.49699088 14.60121138 -9.49699088 14.60121138 -16.21484375 19.515625 C-22.02412234 29.3562535 -20.13469961 43.33260578 -20.0625 54.3125 C-20.05746607 55.65038892 -20.05290657 56.9882797 -20.04882812 58.32617188 C-20.03718676 61.55083085 -20.02083703 64.7753896 -20 68 C-23.3146667 70.02907167 -25.4315979 70.12742133 -29.25 69.625 C-30.14203125 69.51414062 -31.0340625 69.40328125 -31.953125 69.2890625 C-32.62859375 69.19367188 -33.3040625 69.09828125 -34 69 C-34.15381755 60.70734863 -34.30199867 52.41462397 -34.4429636 44.12174511 C-34.50859516 40.27113006 -34.57617561 36.42056968 -34.64819336 32.57006836 C-34.71760894 28.85487479 -34.78192689 25.13962489 -34.84269524 21.42428017 C-34.86679075 20.00606387 -34.89273015 18.58787767 -34.92053413 17.16972923 C-34.95913098 15.1851002 -34.99059414 13.2003363 -35.02172852 11.21557617 C-35.04171402 10.08528488 -35.06169952 8.95499359 -35.08229065 7.79045105 C-35 5 -35 5 -34 2 C-30.04 2 -26.08 2 -22 2 C-21.34 3.98 -20.68 5.96 -20 8 C-19.56429688 7.59007812 -19.12859375 7.18015625 -18.6796875 6.7578125 C-12.76131369 1.40309334 -8.14830188 -0.47931188 0 0 Z " fill="#EEEDED" transform="translate(452,235)"/>
<path d="M0 0 C2.375 1.625 2.375 1.625 4 4 C4.55802097 7.90614682 4.58392818 10.05111671 2.5 13.4375 C-1.24892004 15.78057502 -3.61035762 15.48773804 -8 15 C-10.1621789 13.42392426 -10.88866524 12.50378979 -11.46875 9.87890625 C-11.55234657 3.68231047 -11.55234657 3.68231047 -8.875 0.375 C-5.28533562 -1.34179601 -3.74670854 -1.27547525 0 0 Z " fill="#D6D6D6" transform="translate(46,214)"/>
<path d="M0 0 C1.32 0.33 2.64 0.66 4 1 C3.23856331 2.94121211 2.46548643 4.87786117 1.6875 6.8125 C1.25824219 7.89144531 0.82898438 8.97039062 0.38671875 10.08203125 C-0.85336541 12.69144777 -1.81531451 14.17408984 -4 16 C-4.66 14.02 -5.32 12.04 -6 10 C-6.66 10 -7.32 10 -8 10 C-8 10.66 -8 11.32 -8 12 C-8.66 11.67 -9.32 11.34 -10 11 C-9.278125 10.29875 -8.55625 9.5975 -7.8125 8.875 C-5.00176187 6.07229255 -2.50483774 3.07737208 0 0 Z " fill="#C6C4C3" transform="translate(420,344)"/>
<path d="M0 0 C3.23486594 0.70177877 4.89181195 1.36476494 7 4 C7 4.66 7 5.32 7 6 C7.99 6.33 8.98 6.66 10 7 C9.01 7.33 8.02 7.66 7 8 C6.67 9.65 6.34 11.3 6 13 C2.57068046 9.2440786 1.43570917 4.76533255 0 0 Z " fill="#B8B7B5" transform="translate(47,344)"/>
<path d="M0 0 C2.44786227 2.44786227 3.30080644 4.74317342 4.625 7.9375 C5.07101562 8.99839844 5.51703125 10.05929688 5.9765625 11.15234375 C7 14 7 14 7 17 C6.01 16.67 5.02 16.34 4 16 C4 15.34 4 14.68 4 14 C2.68 13.34 1.36 12.68 0 12 C0.66 11.67 1.32 11.34 2 11 C2.66 11.33 3.32 11.66 4 12 C4 11.34 4 10.68 4 10 C3.34 10 2.68 10 2 10 C0.68373308 6.38026598 0 3.90432869 0 0 Z " fill="#939190" transform="translate(417,185)"/>
<path d="M0 0 C0.66 0 1.32 0 2 0 C2.33692785 1.60341555 2.66941093 3.20776555 3 4.8125 C3.185625 5.70582031 3.37125 6.59914063 3.5625 7.51953125 C4 10 4 10 4 13 C-2.6 13 -9.2 13 -16 13 C-16 12.67 -16 12.34 -16 12 C-7.585 11.505 -7.585 11.505 1 11 C1.42163702 3.73786479 1.42163702 3.73786479 0 0 Z " fill="#B2B1B2" transform="translate(386,252)"/>
<path d="M0 0 C0 3.9519815 -1.37176172 5.14648416 -4 8 C-4.99 8.33 -5.98 8.66 -7 9 C-7.99 10.485 -7.99 10.485 -9 12 C-9.99 11.67 -10.98 11.34 -12 11 C-8.04 7.37 -4.08 3.74 0 0 Z " fill="#9E9E9C" transform="translate(108,116)"/>
<path d="M0 0 C0 0.66 0 1.32 0 2 C-0.66 2 -1.32 2 -2 2 C-2.185625 2.7425 -2.37125 3.485 -2.5625 4.25 C-4.60912666 8.16528579 -7.0875055 9.04375275 -11 11 C-10.67 10.01 -10.34 9.02 -10 8 C-9.34 8 -8.68 8 -8 8 C-7.7525 7.4225 -7.505 6.845 -7.25 6.25 C-5.58207452 3.24773413 -3.67725381 0 0 0 Z " fill="#B8B9B3" transform="translate(358,240)"/>
<path d="M0 0 C0.66 0 1.32 0 2 0 C3.56633048 2.48770135 4.04100928 3.65552204 3.6875 6.625 C3 9 3 9 2 11 C1.34 11 0.68 11 0 11 C0 7.37 0 3.74 0 0 Z " fill="#939290" transform="translate(429,239)"/>
<path d="M0 0 C0 0.99 0 1.98 0 3 C-2.375 5.0625 -2.375 5.0625 -5 7 C-5.66 7.66 -6.32 8.32 -7 9 C-8.32 8.67 -9.64 8.34 -11 8 C-7.37 5.36 -3.74 2.72 0 0 Z " fill="#B8B8B8" transform="translate(400,363)"/>
<path d="M0 0 C1.32 0.33 2.64 0.66 4 1 C2.02 5.455 2.02 5.455 0 10 C-0.33 8.68 -0.66 7.36 -1 6 C-0.34 6 0.32 6 1 6 C0.16666667 3.83333333 0.16666667 3.83333333 -2 3 C-1.34 2.01 -0.68 1.02 0 0 Z " fill="#918D8E" transform="translate(420,344)"/>
<path d="M0 0 C0.66 0 1.32 0 2 0 C0.64978174 4.41889613 -1.26115668 6.34345343 -5 9 C-5.66 8.67 -6.32 8.34 -7 8 C-5.88200014 6.66079162 -4.75538103 5.32877444 -3.625 4 C-2.68527344 2.88625 -2.68527344 2.88625 -1.7265625 1.75 C-1.15679687 1.1725 -0.58703125 0.595 0 0 Z " fill="#B0AFAA" transform="translate(84,139)"/>
<path d="M0 0 C0.66 0 1.32 0 2 0 C2 3.63 2 7.26 2 11 C1.34 10.67 0.68 10.34 0 10 C-1.29411765 2.58823529 -1.29411765 2.58823529 0 0 Z " fill="#A5A2A2" transform="translate(115,293)"/>
<path d="M0 0 C1.125 3.75 1.125 3.75 0 6 C0.66 6.33 1.32 6.66 2 7 C0.625 8.5 0.625 8.5 -1 10 C-1.66 10 -2.32 10 -3 10 C-2.49287967 6.28111761 -1.88391785 3.26545761 0 0 Z " fill="#85807F" transform="translate(50,192)"/>
<path d="M0 0 C-2.81166418 1.51150967 -5.45680982 2.51430351 -8.5625 3.25 C-9.70912109 3.53617187 -9.70912109 3.53617187 -10.87890625 3.828125 C-13 4 -13 4 -16 2 C-14.27192682 1.66104344 -12.54248026 1.32908475 -10.8125 1 C-9.84957031 0.814375 -8.88664063 0.62875 -7.89453125 0.4375 C-5.2065794 0.03122388 -2.71228981 -0.07933572 0 0 Z " fill="#B0B0AF" transform="translate(212,73)"/>
<path d="M0 0 C0.33 0.66 0.66 1.32 1 2 C1.99 2.33 2.98 2.66 4 3 C3.01 3.33 2.02 3.66 1 4 C0.67 5.65 0.34 7.3 0 9 C-3 5.25 -3 5.25 -3 3 C-1.5 1.375 -1.5 1.375 0 0 Z " fill="#A6A6A4" transform="translate(53,348)"/>
<path d="M0 0 C0.66 1.32 1.32 2.64 2 4 C2.99 3.67 3.98 3.34 5 3 C5.33 2.01 5.66 1.02 6 0 C6.33 0.66 6.66 1.32 7 2 C5.75 4 5.75 4 4 6 C2.68 6 1.36 6 0 6 C0 4.02 0 2.04 0 0 Z " fill="#868481" transform="translate(161,240)"/>
<path d="M0 0 C0.66 0.33 1.32 0.66 2 1 C1.01 1.33 0.02 1.66 -1 2 C-2.21869929 4.50447516 -2.21869929 4.50447516 -3 7 C-4.32 6.34 -5.64 5.68 -7 5 C-4.69 3.35 -2.38 1.7 0 0 Z " fill="#A9A8A8" transform="translate(122,106)"/>
<path d="M0 0 C1 2 1 2 0.5 4.0625 C-1 6 -1 6 -4.625 6.75 C-5.73875 6.8325 -6.8525 6.915 -8 7 C-3.25 3 -3.25 3 -1 3 C-0.67 2.01 -0.34 1.02 0 0 Z " fill="#918E8E" transform="translate(111,287)"/>
<path d="" fill="#000000" transform="translate(0,0)"/>
<path d="" fill="#000000" transform="translate(0,0)"/>
<path d="" fill="#000000" transform="translate(0,0)"/>
<path d="" fill="#000000" transform="translate(0,0)"/>
<path d="" fill="#000000" transform="translate(0,0)"/>
<path d="" fill="#000000" transform="translate(0,0)"/>
<path d="" fill="#000000" transform="translate(0,0)"/>
<path d="" fill="#000000" transform="translate(0,0)"/>
<path d="" fill="#000000" transform="translate(0,0)"/>
<path d="" fill="#000000" transform="translate(0,0)"/>
<path d="" fill="#FFFFFF" transform="translate(0,0)"/>
<path d="" fill="#000000" transform="translate(0,0)"/>
<path d="" fill="#000000" transform="translate(0,0)"/>
<path d="" fill="#000000" transform="translate(0,0)"/>
<path d="" fill="#000000" transform="translate(0,0)"/>
<path d="" fill="#000000" transform="translate(0,0)"/>
<path d="" fill="#000000" transform="translate(0,0)"/>
<path d="" fill="#000000" transform="translate(0,0)"/>
<path d="" fill="#000000" transform="translate(0,0)"/>
<path d="" fill="#000000" transform="translate(0,0)"/>
<path d="" fill="#000000" transform="translate(0,0)"/>
<path d="" fill="#000000" transform="translate(0,0)"/>
<path d="" fill="#000000" transform="translate(0,0)"/>
<path d="" fill="#000000" transform="translate(0,0)"/>
<path d="" fill="#000000" transform="translate(0,0)"/>
<path d="" fill="#000000" transform="translate(0,0)"/>
<path d="" fill="#000000" transform="translate(0,0)"/>
<path d="" fill="#000000" transform="translate(0,0)"/>
<path d="" fill="#000000" transform="translate(0,0)"/>
<path d="" fill="#000000" transform="translate(0,0)"/>
<path d="" fill="#000000" transform="translate(0,0)"/>
<path d="" fill="#000000" transform="translate(0,0)"/>
<path d="" fill="#000000" transform="translate(0,0)"/>
<path d="" fill="#000000" transform="translate(0,0)"/>
<path d="" fill="#000000" transform="translate(0,0)"/>
<path d="" fill="#000000" transform="translate(0,0)"/>
<path d="" fill="#000000" transform="translate(0,0)"/>
<path d="" fill="#000000" transform="translate(0,0)"/>
<path d="" fill="#000000" transform="translate(0,0)"/>
<path d="" fill="#000000" transform="translate(0,0)"/>
<path d="" fill="#000000" transform="translate(0,0)"/>
<path d="" fill="#000000" transform="translate(0,0)"/>
<path d="" fill="#000000" transform="translate(0,0)"/>
<path d="" fill="#000000" transform="translate(0,0)"/>
<path d="" fill="#000000" transform="translate(0,0)"/>
<path d="" fill="#000000" transform="translate(0,0)"/>
<path d="" fill="#000000" transform="translate(0,0)"/>
<path d="" fill="#000000" transform="translate(0,0)"/>
<path d="" fill="#000000" transform="translate(0,0)"/>
<path d="" fill="#000000" transform="translate(0,0)"/>
<path d="" fill="#000000" transform="translate(0,0)"/>
<path d="" fill="#000000" transform="translate(0,0)"/>
<path d="" fill="#000000" transform="translate(0,0)"/>
<path d="" fill="#000000" transform="translate(0,0)"/>
<path d="" fill="#000000" transform="translate(0,0)"/>
<path d="" fill="#000000" transform="translate(0,0)"/>
<path d="" fill="#000000" transform="translate(0,0)"/>
<path d="" fill="#000000" transform="translate(0,0)"/>
<path d="" fill="#000000" transform="translate(0,0)"/>
<path d="" fill="#000000" transform="translate(0,0)"/>
<path d="" fill="#000000" transform="translate(0,0)"/>
<path d="" fill="#000000" transform="translate(0,0)"/>
<path d="" fill="#000000" transform="translate(0,0)"/>
<path d="" fill="#000000" transform="translate(0,0)"/>
<path d="" fill="#000000" transform="translate(0,0)"/>
<path d="" fill="#000000" transform="translate(0,0)"/>
<path d="" fill="#000000" transform="translate(0,0)"/>
<path d="" fill="#000000" transform="translate(0,0)"/>
<path d="" fill="#000000" transform="translate(0,0)"/>
<path d="" fill="#000000" transform="translate(0,0)"/>
<path d="" fill="#000000" transform="translate(0,0)"/>
<path d="" fill="#000000" transform="translate(0,0)"/>
<path d="" fill="#000000" transform="translate(0,0)"/>
<path d="" fill="#000000" transform="translate(0,0)"/>
<path d="" fill="#000000" transform="translate(0,0)"/>
<path d="" fill="#000000" transform="translate(0,0)"/>
<path d="" fill="#000000" transform="translate(0,0)"/>
<path d="" fill="#000000" transform="translate(0,0)"/>
<path d="" fill="#000000" transform="translate(0,0)"/>
<path d="" fill="#000000" transform="translate(0,0)"/>
</svg>
