<?xml version="1.0" encoding="UTF-8"?>
<svg version="1.1" xmlns="http://www.w3.org/2000/svg" width="497" height="327">
<path d="M0 0 C5.11948654 0.01524317 10.23897264 0.01386682 15.35847807 0.01466465 C23.94678207 0.01833633 32.53500516 0.03319622 41.12327909 0.05586338 C52.08857884 0.08474856 63.05381372 0.09509358 74.0191474 0.09954548 C83.52538513 0.10355002 93.03160925 0.11604347 102.53783703 0.12989235 C105.55636485 0.13395484 108.57489222 0.13689868 111.59342146 0.13968754 C116.36578476 0.144648 121.13811066 0.1549609 125.91045523 0.16912556 C127.64363151 0.1735764 129.37681274 0.17646962 131.10999441 0.17753315 C140.19009173 0.18434474 149.24645856 0.3419684 158.3172183 0.77296543 C159.52853058 0.828533 159.52853058 0.828533 160.76431382 0.88522315 C183.69051531 2.08332513 206.76565965 9.337773 224.41331816 24.42695713 C226.56753359 26.25262671 228.7971986 27.83829892 231.10472441 29.46211338 C255.66666242 48.56584295 268.85444085 84.58236858 272.6323123 114.26777744 C276.95536603 152.30472325 267.94477128 190.74483018 244.66722441 221.33711338 C241.24738386 225.5920714 237.5514995 229.49901095 233.66722441 233.33711338 C232.50513456 234.51467197 232.50513456 234.51467197 231.31956816 235.71601963 C205.91219848 260.10539787 172.66711117 265.66310861 138.80296659 265.61177158 C136.87396376 265.61613123 134.94496265 265.62131849 133.01596403 265.62725925 C127.82768976 265.64052667 122.63948887 265.64124168 117.45120096 265.63869596 C113.09554115 265.63761774 108.73989567 265.64253122 104.38423896 265.64730138 C94.09492998 265.65835445 83.80565752 265.6588579 73.5163455 265.65278721 C62.95711247 265.64675235 52.39801286 265.65905581 41.83880258 265.68035728 C32.72227491 265.69806145 23.60578937 265.70396078 14.48924518 265.70071954 C9.06677139 265.69892035 3.64439276 265.7014046 -1.7780652 265.71543407 C-6.88365103 265.7281522 -11.98903127 265.72593844 -17.09461451 265.71302319 C-18.94992507 265.71068784 -20.80525075 265.7132802 -22.66054392 265.72164631 C-60.06691087 265.87793437 -91.35064856 255.88971307 -118.33277559 229.33711338 C-119.02758028 228.66680088 -119.72238497 227.99648838 -120.43824434 227.30586338 C-145.11047391 201.66709286 -155.0028631 163.2027933 -154.48511934 128.57148838 C-153.59122971 96.86426264 -143.08968725 65.58524871 -122.33277559 41.33711338 C-121.90384005 40.8260001 -121.4749045 40.31488682 -121.03297091 39.78828526 C-107.91267619 24.24623117 -91.40327138 13.17945201 -72.20777559 6.46211338 C-71.4530295 6.1879459 -70.69828341 5.91377842 -69.92066622 5.63130283 C-47.58713293 -1.6615105 -23.15983189 -0.08253068 0 0 Z M-86.91724825 67.72578526 C-106.15932357 89.62949294 -109.53527252 117.48060661 -108.22877169 145.57344151 C-106.68726156 168.1523607 -96.21972242 188.25676489 -80.19996309 203.91133213 C-62.72471802 218.69624656 -42.00658879 220.64502512 -20.04273653 220.61177158 C-18.12753779 220.61612731 -16.21234079 220.62131331 -14.29714632 220.62725925 C-9.12956425 220.64056918 -3.96205567 220.6412368 1.20554018 220.63869596 C5.53652311 220.63762059 9.86749151 220.64252409 14.19847131 220.64730138 C24.42618538 220.6583693 34.65386272 220.65884956 44.88157988 220.65278721 C55.39309414 220.64675191 65.90447439 220.65905347 76.4159658 220.68035728 C85.47629986 220.69803716 94.53659153 220.70396453 103.59694219 220.70071954 C108.99252026 220.69891639 114.38800277 220.70144507 119.78356504 220.71543407 C124.86282113 220.72811193 129.9418701 220.72597526 135.02112341 220.71302319 C136.8716605 220.71067921 138.72221264 220.71331255 140.57273245 220.72164631 C164.40069822 220.82110999 186.10690569 216.99119549 203.85472441 199.71211338 C222.454365 180.85088283 227.93772852 155.34048312 227.91380644 129.74214268 C227.67021444 104.87073257 219.50093802 81.11714692 201.66722441 63.33711338 C186.46609166 50.18961556 168.16463691 45.16047402 148.35884428 45.20340061 C147.57361234 45.20113506 146.7883804 45.1988695 145.97935355 45.19653529 C143.37513234 45.19025727 140.77096401 45.19102064 138.16673613 45.19184971 C136.28829205 45.18885429 134.40984859 45.18545088 132.53140593 45.1816721 C127.44637984 45.17286551 122.3613706 45.17049535 117.27633762 45.16985631 C114.09298323 45.16914375 110.90963307 45.1670055 107.72627974 45.16435909 C96.60209969 45.15511574 85.4779316 45.15102282 74.35374784 45.15181065 C64.01499102 45.15241071 53.67628649 45.14187021 43.33754289 45.12606698 C34.43698584 45.11295116 25.53644579 45.10762846 16.63587916 45.10826606 C11.33086772 45.10851992 6.02590275 45.1057311 0.72090101 45.09508801 C-4.2745357 45.08533911 -9.26988214 45.08537396 -14.26532221 45.09260464 C-16.08767057 45.09364219 -17.91002475 45.09133757 -19.73236322 45.08524418 C-44.84349232 45.00679025 -68.77715682 48.46001165 -86.91724825 67.72578526 Z " fill="#FCFCFC" transform="translate(195.33277559280396,54.66288661956787)"/>
<path d="M0 0 C5.11948654 0.01524317 10.23897264 0.01386682 15.35847807 0.01466465 C23.94678207 0.01833633 32.53500516 0.03319622 41.12327909 0.05586338 C52.08857884 0.08474856 63.05381372 0.09509358 74.0191474 0.09954548 C83.52538513 0.10355002 93.03160925 0.11604347 102.53783703 0.12989235 C105.55636485 0.13395484 108.57489222 0.13689868 111.59342146 0.13968754 C116.36578476 0.144648 121.13811066 0.1549609 125.91045523 0.16912556 C127.64363151 0.1735764 129.37681274 0.17646962 131.10999441 0.17753315 C140.19009173 0.18434474 149.24645856 0.3419684 158.3172183 0.77296543 C159.52853058 0.828533 159.52853058 0.828533 160.76431382 0.88522315 C177.23241833 1.74583098 192.99811025 5.67175979 207.66722441 13.33711338 C203.82211761 14.61881565 200.55106838 14.21806418 196.66722441 13.33711338 C194.97208303 12.38618042 193.30354333 11.38603577 191.66722441 10.33711338 C189.35030987 9.61545147 187.01873517 8.93651809 184.66722441 8.33711338 C184.66722441 7.67711338 184.66722441 7.01711338 184.66722441 6.33711338 C183.36784941 6.37836338 182.06847441 6.41961338 180.72972441 6.46211338 C177.47698056 6.56537509 174.69488998 6.12927399 171.561831 5.34119987 C166.8218581 4.2701911 162.35055913 4.05358556 157.50586271 4.07641697 C156.62882576 4.07259142 155.75178882 4.06876588 154.84817499 4.0648244 C151.93305939 4.05457264 149.01814365 4.05847169 146.10301542 4.06245518 C144.00283963 4.05810415 141.90266543 4.0529197 139.80249357 4.04696751 C134.11189881 4.03360263 128.42137059 4.03299647 122.7307632 4.03553081 C117.96762863 4.03660306 113.20450738 4.03171022 108.44137567 4.02692538 C97.19153446 4.01583707 85.94172664 4.01538782 74.69188261 4.02143955 C63.12279108 4.02746794 51.55382153 4.01519562 39.98475081 3.99386948 C30.02512691 3.97619154 20.0655416 3.97026219 10.10590261 3.97350723 C4.16976715 3.9753117 -1.76628146 3.97276867 -7.70240259 3.95879269 C-13.29458728 3.94611931 -18.88658381 3.94824747 -24.47876596 3.96120358 C-26.51754876 3.96354903 -28.55634519 3.96090871 -30.59511232 3.95258045 C-58.31789603 3.32358457 -58.31789603 3.32358457 -82.87183809 13.82930088 C-83.35394747 14.32687901 -83.83605684 14.82445713 -84.33277559 15.33711338 C-86.11239441 16.27718683 -87.92964899 17.14794205 -89.77027559 17.96211338 C-90.71773653 18.38750401 -91.66519747 18.81289463 -92.64136934 19.25117588 C-94.88091632 20.15479571 -96.9773557 20.83596021 -99.33277559 21.33711338 C-76.94180987 -3.97930515 -30.04424355 -0.10706346 0 0 Z " fill="#767676" transform="translate(195.33277559280396,54.66288661956787)"/>
<path d="M0 0 C1.93994847 -0.0024336 3.87989568 -0.00615839 5.81983948 -0.01106262 C11.04253058 -0.02039312 16.26503171 -0.01111511 21.48770785 0.00226951 C26.97187213 0.01365941 32.45602808 0.00947099 37.94020081 0.00752258 C47.13855055 0.0066425 56.33682618 0.01766436 65.53515625 0.03613281 C76.15820474 0.05734011 86.78114512 0.06079922 97.40421051 0.05457085 C107.64992599 0.0488723 117.89560354 0.05452584 128.14131355 0.0657444 C132.49159512 0.07037936 136.84185341 0.07126908 141.19213676 0.06915855 C146.31158425 0.0672718 151.430922 0.07540937 156.55034447 0.09121895 C158.4256215 0.09545167 160.30090969 0.09631918 162.17618942 0.09352875 C164.74102771 0.09029178 167.30554116 0.09942639 169.87034607 0.11161804 C170.6072193 0.10783872 171.34409254 0.10405939 172.10329527 0.10016555 C177.11714672 0.14215601 181.41832672 1.01190126 186.24829102 2.37231445 C188.13354492 2.86731445 188.13354492 2.86731445 190.05688477 3.37231445 C191.25442383 3.70231445 192.45196289 4.03231445 193.68579102 4.37231445 C194.90137695 4.70231445 196.11696289 5.03231445 197.36938477 5.37231445 C200.24829102 6.37231445 200.24829102 6.37231445 201.24829102 8.37231445 C200.34208008 8.16735352 199.43586914 7.96239258 198.50219727 7.7512207 C197.2840332 7.48180664 196.06586914 7.21239258 194.81079102 6.93481445 C193.61583008 6.66797852 192.42086914 6.40114258 191.18969727 6.1262207 C184.14955132 4.69177823 177.11146414 4.22305824 169.93991089 4.23860168 C169.15467895 4.23633613 168.369447 4.23407057 167.56042016 4.23173636 C164.95619895 4.22545834 162.35203062 4.22622171 159.74780273 4.22705078 C157.86935866 4.22405536 155.9909152 4.22065195 154.11247253 4.21687317 C149.02744645 4.20806658 143.94243721 4.20569642 138.85740423 4.20505738 C135.67404984 4.20434482 132.49069968 4.20220658 129.30734634 4.19956017 C118.1831663 4.19031681 107.05899821 4.18622389 95.93481445 4.18701172 C85.59605763 4.18761179 75.2573531 4.17707128 64.9186095 4.16126806 C56.01805245 4.14815223 47.1175124 4.14282954 38.21694577 4.14346713 C32.91193432 4.14372099 27.60696936 4.14093217 22.30196762 4.13028908 C17.30653091 4.12054019 12.31118447 4.12057503 7.3157444 4.12780571 C5.49339604 4.12884326 3.67104185 4.12653864 1.84870338 4.12044525 C-22.32686512 4.04491426 -44.80676396 7.06291743 -63.16186523 24.52856445 C-67.60996192 29.41274905 -71.21787659 34.80543774 -74.75170898 40.37231445 C-75.08170898 39.71231445 -75.41170898 39.05231445 -75.75170898 38.37231445 C-74.53686523 35.77075195 -74.53686523 35.77075195 -72.81420898 32.74731445 C-71.96536133 31.24297852 -71.96536133 31.24297852 -71.09936523 29.70825195 C-70.65463867 28.93739258 -70.20991211 28.1665332 -69.75170898 27.37231445 C-69.09170898 27.37231445 -68.43170898 27.37231445 -67.75170898 27.37231445 C-67.75170898 26.71231445 -67.75170898 26.05231445 -67.75170898 25.37231445 C-67.09170898 25.37231445 -66.43170898 25.37231445 -65.75170898 25.37231445 C-65.75170898 24.71231445 -65.75170898 24.05231445 -65.75170898 23.37231445 C-65.09170898 23.37231445 -64.43170898 23.37231445 -63.75170898 23.37231445 C-63.75170898 22.71231445 -63.75170898 22.05231445 -63.75170898 21.37231445 C-58.27551851 16.37231445 -58.27551851 16.37231445 -55.75170898 16.37231445 C-55.75170898 15.71231445 -55.75170898 15.05231445 -55.75170898 14.37231445 C-51.92763971 11.74528886 -47.82705157 9.58351007 -43.75170898 7.37231445 C-43.00147461 6.96239258 -42.25124023 6.5524707 -41.47827148 6.13012695 C-28.55540726 -0.25703582 -14.04935665 -0.06240063 0 0 Z " fill="#DDDDDD" transform="translate(173.751708984375,96.627685546875)"/>
<path d="M0 0 C0 0.66 0 1.32 0 2 C-5.78174927 5.69389537 -11.19768772 7.80856503 -17.91015625 9.2265625 C-21.15003626 9.9557174 -21.15003626 9.9557174 -24.6527338 11.52453041 C-29.06272409 13.19032054 -32.96873037 13.4219051 -37.64610291 13.38095093 C-38.47963289 13.3856309 -39.31316288 13.39031087 -40.17195135 13.39513266 C-42.94544727 13.40703169 -45.71844439 13.39764545 -48.49194336 13.38818359 C-50.48835029 13.39225159 -52.48475497 13.39759475 -54.4811554 13.40411377 C-59.89026072 13.41776688 -65.299194 13.41249671 -70.70830226 13.40297651 C-76.37622327 13.39536851 -82.04412979 13.4024288 -87.71205139 13.40713501 C-97.23050575 13.41258967 -106.74889024 13.40540897 -116.26733398 13.39111328 C-127.26117142 13.37479205 -138.2548419 13.38007266 -149.24867529 13.3965925 C-158.69774582 13.41022117 -168.14676618 13.41212012 -177.59584337 13.40427649 C-183.23491785 13.39960698 -188.87391393 13.3989552 -194.51298332 13.40888596 C-199.81622923 13.41757323 -205.11926063 13.41150144 -210.42248344 13.39420319 C-212.36506291 13.39024756 -214.30766053 13.3913565 -216.2502327 13.39799118 C-218.90936729 13.40623354 -221.56782176 13.39585288 -224.22691345 13.38095093 C-225.37003483 13.39098918 -225.37003483 13.39098918 -226.53624958 13.40123022 C-231.41393438 13.34849475 -235.42136161 12.41729729 -239.99177843 10.70999587 C-242.61680335 9.78193251 -245.24465929 9.35324881 -248 9 C-248 8.34 -248 7.68 -248 7 C-249.32 6.34 -250.64 5.68 -252 5 C-250.1746875 5.433125 -250.1746875 5.433125 -248.3125 5.875 C-235.66867505 8.62497433 -223.59199632 9.29416176 -210.70996094 9.2746582 C-208.7947622 9.27901393 -206.87956519 9.28419993 -204.96437073 9.29014587 C-199.79678866 9.3034558 -194.62928008 9.30412342 -189.46168423 9.30158257 C-185.1307013 9.30050721 -180.79973289 9.30541071 -176.4687531 9.310188 C-166.24103903 9.32125592 -156.01336169 9.32173618 -145.78564453 9.31567383 C-135.27413027 9.30963853 -124.76275002 9.32194009 -114.25125861 9.3432439 C-105.19092454 9.36092378 -96.13063288 9.36685115 -87.07028222 9.36360615 C-81.67470415 9.36180301 -76.27922164 9.36433169 -70.88365936 9.37832069 C-65.80440328 9.39099855 -60.72535431 9.38886188 -55.646101 9.37590981 C-53.7955639 9.37356583 -51.94501177 9.37619917 -50.09449196 9.38453293 C-32.78228683 9.45679825 -15.53600468 0 0 0 Z " fill="#D5D5D5" transform="translate(386,265)"/>
<path d="M0 0 C5.4832551 0.79275977 10.52302185 2.35983565 15.78125 4.0625 C20.6994381 5.49498197 25.42717499 6.12017018 30.54118347 6.20135498 C31.62298323 6.22049706 32.70478298 6.23963913 33.81936455 6.25936127 C34.99554407 6.27528572 36.17172359 6.29121017 37.38354492 6.30761719 C39.26750064 6.33784847 39.26750064 6.33784847 41.18951607 6.36869049 C44.65894159 6.4234531 48.1284295 6.47146731 51.59798074 6.51750278 C53.80959667 6.54709751 56.02118767 6.57817401 58.23277855 6.60958099 C92.27420104 7.08852335 126.3164205 7.22047593 160.3608743 7.2388196 C169.12119405 7.24363292 177.88136438 7.26150627 186.64163905 7.2898953 C193.5739399 7.31155236 200.50619826 7.32159926 207.43853253 7.32293582 C211.51811239 7.32397041 215.59754512 7.32959884 219.67708778 7.34775543 C223.46597785 7.3643341 227.25461015 7.366345 231.04352379 7.35761642 C233.06317423 7.35649548 235.08281673 7.37008766 237.10241699 7.3843689 C244.67324135 7.35022952 251.52449476 6.48949726 258.8735075 4.64371872 C262.00716512 3.99852476 264.8107235 3.88658158 268 4 C264.56502694 6.28998204 261.47724258 6.85866213 257.5 7.5625 C256.51386719 7.75102539 256.51386719 7.75102539 255.5078125 7.94335938 C243.32641786 10.17194786 231.15268685 10.15418541 218.81689453 10.16113281 C216.88877774 10.16576914 214.96066185 10.17079488 213.032547 10.17617798 C207.81914503 10.18922816 202.60575591 10.19573278 197.39234018 10.20018864 C194.12483839 10.20313218 190.85734 10.20723939 187.58983994 10.21169281 C177.33666188 10.22535017 167.08349173 10.23502464 156.83030522 10.2388947 C145.05070943 10.24336703 133.27123017 10.26088402 121.49166977 10.2898953 C112.34979177 10.31161764 103.20794628 10.32160463 94.06604278 10.32293582 C88.62335008 10.3239766 83.18076716 10.32972727 77.73810196 10.34775543 C72.60798427 10.36441909 67.47805673 10.36630441 62.34792137 10.35761642 C60.48293607 10.35685564 58.61793975 10.36105909 56.75298119 10.37107468 C38.17113703 10.46487622 19.4114711 8.96918856 2 2 C1.34 1.34 0.68 0.68 0 0 Z " fill="#6C6C6C" transform="translate(116,310)"/>
<path d="M0 0 C0.84462752 -0.00367669 1.68925504 -0.00735338 2.55947733 -0.01114148 C5.38263468 -0.02213233 8.20575517 -0.02601435 11.02893066 -0.02983093 C13.05633662 -0.03609914 15.08374144 -0.04274626 17.11114502 -0.04974365 C23.7640707 -0.070747 30.4169965 -0.08114378 37.06994629 -0.09111023 C39.36469026 -0.09515942 41.65943412 -0.0992764 43.95417786 -0.10346031 C54.73862279 -0.12250519 65.52306092 -0.13673671 76.30751944 -0.14507228 C88.73419112 -0.15483704 101.16068432 -0.18113977 113.58729315 -0.22157317 C123.20623849 -0.2517911 132.82513283 -0.26654661 142.4441247 -0.26985329 C148.18236883 -0.2721976 153.92042213 -0.28107729 159.65861511 -0.30631447 C165.06281883 -0.32969908 170.46670747 -0.33378676 175.87094879 -0.32355309 C177.84530438 -0.32306011 179.81967603 -0.32930956 181.79398346 -0.34310913 C192.78060875 -0.41555242 203.22118136 -0.28838811 213.47619629 4.14717102 C213.80619629 4.80717102 214.13619629 5.46717102 214.47619629 6.14717102 C213.56998535 5.94221008 212.66377441 5.73724915 211.73010254 5.52607727 C210.51193848 5.25666321 209.29377441 4.98724915 208.03869629 4.70967102 C206.84373535 4.44283508 205.64877441 4.17599915 204.41760254 3.90107727 C197.37745659 2.4666348 190.33936942 1.9979148 183.16781616 2.01345825 C182.38258422 2.0111927 181.59735228 2.00892714 180.78832543 2.00659293 C178.18410422 2.00031491 175.57993589 2.00107828 172.97570801 2.00190735 C171.09726393 1.99891193 169.21882047 1.99550852 167.34037781 1.99172974 C162.25535172 1.98292315 157.17034248 1.98055299 152.08530951 1.97991395 C148.90195511 1.97920139 145.71860495 1.97706314 142.53525162 1.97441673 C131.41107157 1.96517338 120.28690348 1.96108046 109.16271973 1.96186829 C98.8239629 1.96246835 88.48525837 1.95192785 78.14651477 1.93612462 C69.24595772 1.9230088 60.34541767 1.9176861 51.44485104 1.9183237 C46.1398396 1.91857756 40.83487464 1.91578874 35.52987289 1.90514565 C30.53443619 1.89539675 25.53908974 1.8954316 20.54364967 1.90266228 C18.72130131 1.90369983 16.89894713 1.90139521 15.07660866 1.89530182 C-9.09895985 1.81977083 -31.57885869 4.83777399 -49.93395996 22.30342102 C-54.38205664 27.18760561 -57.98997132 32.58029431 -61.52380371 38.14717102 C-61.85380371 37.48717102 -62.18380371 36.82717102 -62.52380371 36.14717102 C-61.30895996 33.54560852 -61.30895996 33.54560852 -59.58630371 30.52217102 C-58.73745605 29.01783508 -58.73745605 29.01783508 -57.87145996 27.48310852 C-57.4267334 26.71224915 -56.98200684 25.94138977 -56.52380371 25.14717102 C-55.86380371 25.14717102 -55.20380371 25.14717102 -54.52380371 25.14717102 C-54.52380371 24.48717102 -54.52380371 23.82717102 -54.52380371 23.14717102 C-53.86380371 23.14717102 -53.20380371 23.14717102 -52.52380371 23.14717102 C-52.52380371 22.48717102 -52.52380371 21.82717102 -52.52380371 21.14717102 C-51.86380371 21.14717102 -51.20380371 21.14717102 -50.52380371 21.14717102 C-50.52380371 20.48717102 -50.52380371 19.82717102 -50.52380371 19.14717102 C-45.04761323 14.14717102 -45.04761323 14.14717102 -42.52380371 14.14717102 C-42.52380371 13.48717102 -42.52380371 12.82717102 -42.52380371 12.14717102 C-34.04578148 5.62808574 -24.8010992 3.18509955 -14.52380371 1.14717102 C-13.63403587 0.97022107 -12.74426804 0.79327112 -11.82753754 0.61095905 C-7.8733604 0.05585984 -3.98352612 -0.0009388 0 0 Z " fill="#6D6D6D" transform="translate(160.5238037109375,98.85282897949219)"/>
<path d="M0 0 C0 0.66 0 1.32 0 2 C-6.73568472 6.30335413 -13.24250219 8.2761116 -21 10 C-21.99 10.33 -22.98 10.66 -24 11 C-26.73987611 11.09813855 -29.4542675 11.13905522 -32.1942749 11.13371277 C-33.46243825 11.1371111 -33.46243825 11.1371111 -34.75622106 11.14057809 C-37.60018976 11.14692752 -40.44411092 11.14608809 -43.28808594 11.14526367 C-45.32327842 11.1482548 -47.35847034 11.15165722 -49.3936615 11.15544128 C-54.93357356 11.16429576 -60.47347018 11.16662016 -66.01338863 11.16725707 C-69.47779183 11.1679674 -72.9421911 11.17010152 -76.40659332 11.17275429 C-88.50332387 11.18201641 -100.60004337 11.18608858 -112.69677734 11.18530273 C-123.95221934 11.1847035 -135.20761316 11.19522271 -146.46304297 11.2110464 C-156.13629625 11.22415835 -165.80953387 11.22948501 -175.48279595 11.22884732 C-181.25514685 11.22859317 -187.02745505 11.23139792 -192.79979706 11.24202538 C-198.2400124 11.25176651 -203.68014483 11.25174459 -209.12036324 11.24450874 C-211.10718724 11.24346995 -213.09401657 11.24578341 -215.08083153 11.2518692 C-226.24087182 11.28381215 -236.97795167 10.85516804 -248 9 C-248 8.34 -248 7.68 -248 7 C-249.32 6.34 -250.64 5.68 -252 5 C-250.1746875 5.433125 -250.1746875 5.433125 -248.3125 5.875 C-235.66867505 8.62497433 -223.59199632 9.29416176 -210.70996094 9.2746582 C-208.7947622 9.27901393 -206.87956519 9.28419993 -204.96437073 9.29014587 C-199.79678866 9.3034558 -194.62928008 9.30412342 -189.46168423 9.30158257 C-185.1307013 9.30050721 -180.79973289 9.30541071 -176.4687531 9.310188 C-166.24103903 9.32125592 -156.01336169 9.32173618 -145.78564453 9.31567383 C-135.27413027 9.30963853 -124.76275002 9.32194009 -114.25125861 9.3432439 C-105.19092454 9.36092378 -96.13063288 9.36685115 -87.07028222 9.36360615 C-81.67470415 9.36180301 -76.27922164 9.36433169 -70.88365936 9.37832069 C-65.80440328 9.39099855 -60.72535431 9.38886188 -55.646101 9.37590981 C-53.7955639 9.37356583 -51.94501177 9.37619917 -50.09449196 9.38453293 C-32.78228683 9.45679825 -15.53600468 0 0 0 Z " fill="#777777" transform="translate(386,265)"/>
<path d="M0 0 C2.88865969 2.88865969 3.69434077 6.44661735 4.9375 10.25 C5.20401367 11.06484863 5.47052734 11.87969727 5.74511719 12.71923828 C18.00112496 50.99488556 14.25300953 92.03961439 -3.00048828 128.09130859 C-4.46483496 130.88765991 -6.17847121 133.42389582 -8 136 C-8.93423645 132.98968256 -9.04449911 132.13349732 -8 129 C-6.515 128.01 -6.515 128.01 -5 127 C-4.13916427 124.43764614 -3.43326741 121.99333415 -2.8125 119.375 C-2.63525391 118.66859375 -2.45800781 117.9621875 -2.27539062 117.234375 C-1.83983596 115.49215636 -1.41853749 113.74638484 -1 112 C-0.34 112 0.32 112 1 112 C1.268125 110.989375 1.53625 109.97875 1.8125 108.9375 C2.49399472 106.36878913 3.37134925 104.20328707 4.50390625 101.7734375 C6.23376696 97.80655117 6.72040523 93.967478 7.125 89.6875 C7.89330306 82.21339387 7.89330306 82.21339387 9 80 C9.11161106 77.15063521 9.16413369 74.32654906 9.16796875 71.4765625 C9.17129715 70.62001068 9.17462555 69.76345886 9.17805481 68.88095093 C9.18312695 67.06012509 9.18546305 65.23928993 9.18530273 63.41845703 C9.18746403 60.67073485 9.20554567 57.92343097 9.22460938 55.17578125 C9.26309315 43.48357019 8.74705577 32.5097565 5 21.3125 C2.73613778 14.27685384 1.12375305 7.3043948 0 0 Z " fill="#6F6F6F" transform="translate(456,128)"/>
<path d="M0 0 C0.66 0 1.32 0 2 0 C2.81436868 1.76997474 3.6264294 3.54101152 4.4375 5.3125 C4.88996094 6.29863281 5.34242188 7.28476563 5.80859375 8.30078125 C7.78498165 12.77843384 8.09207381 16.12008806 8 21 C8.66 21 9.32 21 10 21 C10.12537868 26.54598115 10.21516061 32.09110374 10.2746582 37.63818359 C10.29950922 39.51756188 10.33340276 41.39684662 10.37719727 43.27587891 C10.6298109 54.40871056 10.1220142 63.96016275 6.27807617 74.47460938 C5.3265697 77.09920412 4.58252068 79.54239121 3.9387207 82.24023438 C1.84534693 90.62461826 -3.91687091 97.17725634 -9 104 C-9 100.1230734 -7.27665231 97.88280099 -5.3125 94.6875 C8.16804132 71.80836454 10.67257591 43.13165611 4.93359375 17.40234375 C3.71370574 12.95664308 2.34548331 8.59020505 0.76953125 4.2578125 C0 2 0 2 0 0 Z " fill="#909090" transform="translate(415,144)"/>
<path d="M0 0 C0.33 0.66 0.66 1.32 1 2 C0.14785847 4.31938523 -0.76366605 6.55099123 -1.75 8.8125 C-12.07405398 33.49553531 -12.07420109 63.18696913 -2.94482422 88.1887207 C-2.24814794 90.10893735 -1.6180455 92.05305121 -1 94 C-1.495 94.99 -1.495 94.99 -2 96 C-2.33 95.01 -2.66 94.02 -3 93 C-3.66 93 -4.32 93 -5 93 C-5.50559908 91.56445975 -6.0042749 90.1264798 -6.5 88.6875 C-6.7784375 87.88699219 -7.056875 87.08648437 -7.34375 86.26171875 C-8 84 -8 84 -8 81 C-8.66 81 -9.32 81 -10 81 C-11.64662502 75.21504904 -12.31889145 70.03176669 -12.3359375 64.03125 C-12.3425943 63.19267456 -12.3492511 62.35409912 -12.35610962 61.4901123 C-12.36618073 59.72194591 -12.37092837 57.95374192 -12.37060547 56.18554688 C-12.37494357 53.53448502 -12.4112238 50.88513939 -12.44921875 48.234375 C-12.51232668 38.48887032 -11.6982458 29.8324429 -8.95947266 20.46289062 C-7.99388851 16.97794266 -7.43763383 13.585959 -7 10 C-6.34 10 -5.68 10 -5 10 C-5 8.35 -5 6.7 -5 5 C-4.01 5 -3.02 5 -2 5 C-1.34 3.35 -0.68 1.7 0 0 Z " fill="#666666" transform="translate(97,137)"/>
<path d="M0 0 C0.33 0 0.66 0 1 0 C0.85892253 1.45880109 0.71197585 2.91703551 0.5625 4.375 C0.48128906 5.18710938 0.40007813 5.99921875 0.31640625 6.8359375 C0 9 0 9 -1 11 C-1.49341483 14.33748392 -1.73488371 17.70571967 -2.0234375 21.06640625 C-2.11152679 22.08940323 -2.19961609 23.11240021 -2.29037476 24.16639709 C-3.22546091 35.74728677 -3.45063149 47.32473898 -3.625 58.9375 C-3.66333945 61.09701817 -3.70239923 63.25652367 -3.7421875 65.41601562 C-3.83637535 70.61056964 -3.92100375 75.80519368 -4 81 C-4.33 81 -4.66 81 -5 81 C-10.53049729 54.20661994 -9.00273447 25.8828616 0 0 Z " fill="#858585" transform="translate(49,138)"/>
<path d="M0 0 C1.01657181 -0.00137466 2.03314362 -0.00274933 3.08052063 -0.00416565 C4.18463287 -0.00057037 5.28874512 0.0030249 6.42631531 0.00672913 C8.18305321 0.00651009 8.18305321 0.00651009 9.97528076 0.00628662 C13.84398759 0.00698294 17.71264619 0.0147623 21.5813446 0.02259827 C24.26462892 0.02446344 26.94791057 0.02593607 29.63119507 0.02688599 C35.970495 0.02999121 42.30977764 0.0381937 48.64906996 0.04823548 C55.86790953 0.05942173 63.08674992 0.06491339 70.30559599 0.06993091 C85.15142779 0.08037699 99.99724443 0.09796077 114.84306335 0.12025452 C114.84306335 0.45025452 114.84306335 0.78025452 114.84306335 1.12025452 C114.27728388 1.12264287 113.7115044 1.12503122 113.12858009 1.12749195 C99.27745878 1.18697008 85.42650875 1.26290683 71.57557106 1.35596943 C64.87698695 1.40068338 58.17846415 1.43978731 51.4797821 1.46669006 C45.00220553 1.49290459 38.52485552 1.53343257 32.0474205 1.58344078 C29.58942379 1.59998767 27.13138801 1.61157706 24.67334366 1.61786842 C-5.1357383 0.66857266 -5.1357383 0.66857266 -31.69599915 11.61244202 C-32.17810852 12.11002014 -32.6602179 12.60759827 -33.15693665 13.12025452 C-34.93655547 14.06032797 -36.75381004 14.93108318 -38.59443665 15.74525452 C-39.54189758 16.17064514 -40.48935852 16.59603577 -41.4655304 17.03431702 C-43.70507737 17.93793684 -45.80151675 18.61910135 -48.15693665 19.12025452 C-44.94169812 15.48493457 -41.33273764 13.36122127 -37.03193665 11.24525452 C-35.99589294 10.73079773 -35.99589294 10.73079773 -34.93891907 10.20594788 C-24.31188847 5.09494836 -11.9391442 -0.01250172 0 0 Z " fill="#C4C4C4" transform="translate(144.1569366455078,56.87974548339844)"/>
<path d="M0 0 C0 9.26113745 -12.35196828 19.28817123 -18.45703125 25.5 C-28.20442276 34.85281944 -39.5121523 41.69333532 -51.8125 47.1875 C-52.82606567 47.64322388 -52.82606567 47.64322388 -53.86010742 48.1081543 C-58.61969979 50.12676674 -58.61969979 50.12676674 -62 49 C-58.06912175 46.96436662 -54.24219703 45.02581445 -50.0625 43.5625 C-44.92932941 41.70603712 -39.23022619 39.34644145 -35.42578125 35.34375 C-34 34 -34 34 -31 34 C-31 33.34 -31 32.68 -31 32 C-30.34 32 -29.68 32 -29 32 C-29 31.34 -29 30.68 -29 30 C-27.35 29.34 -25.7 28.68 -24 28 C-24 27.34 -24 26.68 -24 26 C-22.35546875 24.30859375 -22.35546875 24.30859375 -20.1875 22.4375 C-19.47980469 21.81746094 -18.77210938 21.19742187 -18.04296875 20.55859375 C-16 19 -16 19 -13 18 C-12.31513275 16.67592331 -11.65129797 15.34090759 -11 14 C-10.0409375 13.071875 -10.0409375 13.071875 -9.0625 12.125 C-6.83138364 10.04031062 -6.83138364 10.04031062 -5.5 7 C-4.00462783 4.00925565 -2.4701656 2.21463123 0 0 Z " fill="#737474" transform="translate(446,264)"/>
<path d="M0 0 C4.82912697 14.16780635 -5.23924373 33.50040207 -11.25146484 45.97460938 C-15.60802562 54.80401281 -15.60802562 54.80401281 -18 56 C-17.6875 52.625 -17.6875 52.625 -17 49 C-16.01 48.34 -15.02 47.68 -14 47 C-13.13916427 44.43764614 -12.43326741 41.99333415 -11.8125 39.375 C-11.63525391 38.66859375 -11.45800781 37.9621875 -11.27539062 37.234375 C-10.83983596 35.49215636 -10.41853749 33.74638484 -10 32 C-9.34 32 -8.68 32 -8 32 C-7.731875 30.989375 -7.46375 29.97875 -7.1875 28.9375 C-6.50600528 26.36878913 -5.62865075 24.20328707 -4.49609375 21.7734375 C-2.76623304 17.80655117 -2.27959477 13.967478 -1.875 9.6875 C-1.10669694 2.21339387 -1.10669694 2.21339387 0 0 Z " fill="#ABABAB" transform="translate(465,208)"/>
<path d="M0 0 C0.33 0 0.66 0 1 0 C0.98952637 0.88034912 0.97905273 1.76069824 0.96826172 2.66772461 C0.60780107 25.91242827 0.60780107 25.91242827 3 49 C3.66 49 4.32 49 5 49 C5.86343731 51.28855702 6.7159811 53.5801928 7.5625 55.875 C7.80935547 56.52597656 8.05621094 57.17695313 8.31054688 57.84765625 C8.93173115 59.54497665 9.47152252 61.27156776 10 63 C9.505 63.99 9.505 63.99 9 65 C8.67 64.01 8.34 63.02 8 62 C7.34 62 6.68 62 6 62 C5.49440092 60.56445975 4.9957251 59.1264798 4.5 57.6875 C4.2215625 56.88699219 3.943125 56.08648437 3.65625 55.26171875 C3 53 3 53 3 50 C2.34 50 1.68 50 1 50 C-0.72592884 44.03085993 -1.28427705 38.73489749 -1.23046875 32.5390625 C-1.23001053 31.66728363 -1.22955231 30.79550476 -1.2290802 29.89730835 C-1.22607896 28.07035953 -1.21825719 26.24341279 -1.20581055 24.41650391 C-1.18741613 21.61221336 -1.18530213 18.80825118 -1.18554688 16.00390625 C-1.18063596 14.22395546 -1.17480952 12.44400692 -1.16796875 10.6640625 C-1.16685593 9.82453033 -1.1657431 8.98499817 -1.16459656 8.12002563 C-1.11611898 2.23223795 -1.11611898 2.23223795 0 0 Z " fill="#AAAAAA" transform="translate(86,168)"/>
<path d="M0 0 C-0.66 0 -1.32 0 -2 0 C-2 0.66 -2 1.32 -2 2 C-2.95519531 2.46148437 -3.91039062 2.92296875 -4.89453125 3.3984375 C-19.13750618 10.49033686 -28.5269674 19.65235853 -37 33 C-37.33 32.34 -37.66 31.68 -38 31 C-36.78515625 28.3984375 -36.78515625 28.3984375 -35.0625 25.375 C-34.21365234 23.87066406 -34.21365234 23.87066406 -33.34765625 22.3359375 C-32.90292969 21.56507812 -32.45820312 20.79421875 -32 20 C-31.34 20 -30.68 20 -30 20 C-30 19.34 -30 18.68 -30 18 C-29.34 18 -28.68 18 -28 18 C-28 17.34 -28 16.68 -28 16 C-27.34 16 -26.68 16 -26 16 C-26 15.34 -26 14.68 -26 14 C-20.52380952 9 -20.52380952 9 -18 9 C-18 8.34 -18 7.68 -18 7 C-15.48046875 5.30859375 -15.48046875 5.30859375 -12.1875 3.4375 C-10.56908203 2.50744141 -10.56908203 2.50744141 -8.91796875 1.55859375 C-3.69444444 -1.23148148 -3.69444444 -1.23148148 0 0 Z " fill="#858585" transform="translate(136,104)"/>
<path d="M0 0 C1.7662303 2.64934545 2.44295805 4.13421879 3.2265625 7.10546875 C7.47650806 22.56470333 13.34211171 37.02710681 23 50 C23.66 50.33 24.32 50.66 25 51 C26.3749149 53.90259811 27 55.76138705 27 59 C14.21423801 43.82975507 0 20.46058842 0 0 Z " fill="#666666" transform="translate(45,219)"/>
<path d="M0 0 C-2.82528544 2.82528544 -6.08782176 3.02833998 -9.875 3.8125 C-19.29249395 5.89012261 -27.73533816 8.96877393 -36 14 C-37.7179448 14.9375291 -39.4471236 15.85479883 -41.1875 16.75 C-42.04730469 17.19859375 -42.90710938 17.6471875 -43.79296875 18.109375 C-44.88544922 18.55023438 -44.88544922 18.55023438 -46 19 C-46.66 18.67 -47.32 18.34 -48 18 C-34.68840413 9.15553327 -16.51363193 -0.8101027 0 0 Z " fill="#656565" transform="translate(144,57)"/>
<path d="M0 0 C0.66 0 1.32 0 2 0 C11.64403518 18.37385884 9.55587684 40.93712191 9 61 C8.01 61.495 8.01 61.495 7 62 C7.01571045 61.11441406 7.0314209 60.22882813 7.04760742 59.31640625 C7.3437803 40.10140948 7.44102094 22.59816243 0.76953125 4.2578125 C0 2 0 2 0 0 Z " fill="#4C4C4C" transform="translate(415,144)"/>
<path d="M0 0 C7.36696646 0.40750894 13.8029463 1.94202316 20.75 4.375 C21.65621094 4.67921875 22.56242187 4.9834375 23.49609375 5.296875 C28.19460111 6.90191255 32.62964525 8.64116615 37 11 C33.1548932 12.28170227 29.88384398 11.8809508 26 11 C24.30485863 10.04906703 22.63631892 9.04892238 21 8 C18.68308546 7.27833809 16.35151077 6.59940471 14 6 C14 5.34 14 4.68 14 4 C12.989375 3.87625 11.97875 3.7525 10.9375 3.625 C7.12062388 3.01914665 3.68499888 2.12806088 0 1 C0 0.67 0 0.34 0 0 Z " fill="#828282" transform="translate(366,57)"/>
<path d="M0 0 C2.5633102 2.46077779 4.89478133 5.04139282 7.1875 7.75 C14.80456693 16.42991348 22.73389086 21.9224808 33 27 C31.40625 27.73828125 31.40625 27.73828125 29 28 C26.68305022 26.81519613 24.64653765 25.62582625 22.5 24.1875 C18.28057673 21.37485932 18.28057673 21.37485932 13.80859375 19.0078125 C11.37793916 17.65336566 10.19313719 15.92821393 8.5625 13.6875 C6.53411448 10.9596712 4.57796142 8.47428311 2.0625 6.1875 C0 4 0 4 0 0 Z " fill="#646464" transform="translate(101,242)"/>
<path d="M0 0 C2.3125 0.25 2.3125 0.25 5 1 C5.45761719 1.62777344 5.91523437 2.25554687 6.38671875 2.90234375 C8.25519565 5.33181614 9.72117673 6.0719539 12.5 7.3125 C18.32441421 10.06148606 23.63082018 13.45797453 29 17 C28.34 17.33 27.68 17.66 27 18 C18.08504 14.61084165 5.39778773 8.09668159 0 0 Z " fill="#858585" transform="translate(87,292)"/>
<path d="M0 0 C10.18039543 3.78337855 18.24749654 10.56935138 26 18 C26.54914063 18.50917969 27.09828125 19.01835938 27.6640625 19.54296875 C30.09360911 21.85174842 31.58431032 23.98533938 33 27 C28.03694022 22.79218844 23.20669795 18.46913437 18.4296875 14.05078125 C16.04303481 11.91852194 16.04303481 11.91852194 13.1953125 10.35546875 C12.47085937 9.90816406 11.74640625 9.46085937 11 9 C11 8.34 11 7.68 11 7 C9.948125 6.5978125 9.948125 6.5978125 8.875 6.1875 C5.8350176 4.9318551 2.9272226 3.49764877 0 2 C0 1.34 0 0.68 0 0 Z " fill="#606060" transform="translate(403,69)"/>
<path d="M0 0 C4.42011138 4.00671966 7.27965937 8.35081669 10.25 13.5 C10.69601562 14.24636719 11.14203125 14.99273437 11.6015625 15.76171875 C13.76727087 19.469674 15.5507755 22.64597794 16 27 C15.34 26.67 14.68 26.34 14 26 C13.375 23.4375 13.375 23.4375 13 21 C12.01 21 11.02 21 10 21 C9.649375 20.05125 9.29875 19.1025 8.9375 18.125 C7.09039125 13.72242526 4.3029058 10.1145863 1.42578125 6.33203125 C0 4 0 4 0 0 Z " fill="#8A8A8A" transform="translate(440,101)"/>
<path d="M0 0 C0 3.10551666 -0.5393715 4.35261084 -2 7 C-2.66 7 -3.32 7 -4 7 C-4.268125 7.639375 -4.53625 8.27875 -4.8125 8.9375 C-6 11 -6 11 -9 12 C-9 12.66 -9 13.32 -9 14 C-11.30276574 16.21747812 -12.52480092 16.96760006 -15.75 17.1875 C-16.86375 17.0946875 -16.86375 17.0946875 -18 17 C-15.49407552 14.389662 -12.86054502 11.98846897 -10.125 9.625 C-6.58651984 6.55699192 -3.26988406 3.35163116 0 0 Z " fill="#686868" transform="translate(404,248)"/>
<path d="M0 0 C1.34095315 3.8285184 0.86743087 7.43555305 0.375 11.375 C0.28943848 12.07238281 0.20387695 12.76976562 0.11572266 13.48828125 C-0.90036648 20.72689375 -3.23720832 27.25119589 -6 34 C-7.53462786 29.39611643 -5.63854048 25.72009935 -3.9921875 21.28515625 C-2.83074031 17.43957716 -2.3569185 13.73265221 -1.9375 9.75 C-1.12414188 2.24828375 -1.12414188 2.24828375 0 0 Z " fill="#797979" transform="translate(465,208)"/>
<path d="M0 0 C-0.66 0 -1.32 0 -2 0 C-2 0.66 -2 1.32 -2 2 C-4.41381346 3.31799019 -6.83077596 4.62950918 -9.25 5.9375 C-9.93191406 6.31068359 -10.61382812 6.68386719 -11.31640625 7.06835938 C-11.98027344 7.42607422 -12.64414063 7.78378906 -13.328125 8.15234375 C-14.23933105 8.6472229 -14.23933105 8.6472229 -15.16894531 9.15209961 C-17.09064982 10.04197691 -18.93451578 10.55141511 -21 11 C-20.67 10.34 -20.34 9.68 -20 9 C-19.34 9 -18.68 9 -18 9 C-18 8.34 -18 7.68 -18 7 C-15.48046875 5.30859375 -15.48046875 5.30859375 -12.1875 3.4375 C-10.56908203 2.50744141 -10.56908203 2.50744141 -8.91796875 1.55859375 C-3.69444444 -1.23148148 -3.69444444 -1.23148148 0 0 Z " fill="#8D8D8D" transform="translate(136,104)"/>
<path d="M0 0 C0 3.72333744 -1.0340464 4.82337783 -3.1875 7.8125 C-4.13882812 9.13314453 -4.13882812 9.13314453 -5.109375 10.48046875 C-7.31215789 13.41599554 -9.59397471 16.22942543 -12 19 C-12.33 18.01 -12.66 17.02 -13 16 C-12.278125 15.34 -11.55625 14.68 -10.8125 14 C-8.04906894 11.26005418 -6.15543654 8.22112209 -4.2109375 4.8671875 C-2.98354446 2.97462662 -1.64690512 1.53266893 0 0 Z " fill="#777777" transform="translate(446,264)"/>
<path d="M0 0 C6.22429977 0.49139209 13.22261112 2.98171515 17.53125 7.6640625 C18.625 9.3125 18.625 9.3125 20 12 C15.65694811 9.95621087 11.75897734 7.28544827 7.75390625 4.65625 C5.21508911 3.12935856 2.77867553 2.00859366 0 1 C0 0.67 0 0.34 0 0 Z " fill="#7C7C7C" transform="translate(376,105)"/>
<path d="M0 0 C0 0.66 0 1.32 0 2 C-8.1652132 7.05741337 -15.38348529 9.40921339 -25 9 C-25 8.67 -25 8.34 -25 8 C-23.89205078 7.76216797 -23.89205078 7.76216797 -22.76171875 7.51953125 C-16.15069214 5.99907913 -10.26981246 3.98038612 -4.1796875 0.98828125 C-2 0 -2 0 0 0 Z " fill="#6E6E6E" transform="translate(386,265)"/>
<path d="M0 0 C0 2.84585459 -0.34648931 4.38434028 -1.3125 7 C-1.55613281 7.680625 -1.79976563 8.36125 -2.05078125 9.0625 C-3.09722261 11.19844615 -4.16720869 12.49230535 -6 14 C-6.66 14 -7.32 14 -8 14 C-6.6744419 10.37723685 -5.05653045 7.36494652 -2.875 4.1875 C-2.33617188 3.39730469 -1.79734375 2.60710937 -1.2421875 1.79296875 C-0.83226563 1.20128906 -0.42234375 0.60960938 0 0 Z " fill="#989898" transform="translate(67,104)"/>
<path d="M0 0 C6.73848545 -0.49914707 12.0098644 0.80059034 18 4 C18.33 4.66 18.66 5.32 19 6 C14.81134319 5.23915412 10.77515205 4.12177302 6.6875 2.9375 C4.80611328 2.39416016 4.80611328 2.39416016 2.88671875 1.83984375 C1.93410156 1.56269531 0.98148437 1.28554687 0 1 C0 0.67 0 0.34 0 0 Z " fill="#CACACA" transform="translate(360,99)"/>
<path d="M0 0 C0.33 0 0.66 0 1 0 C1.85129163 7.32110805 -1.19987083 13.34969322 -4 20 C-5.08062462 16.75812614 -4.96405231 16.10290139 -4.00390625 12.98828125 C-3.77509766 12.23095703 -3.54628906 11.47363281 -3.31054688 10.69335938 C-3.06369141 9.90767578 -2.81683594 9.12199219 -2.5625 8.3125 C-2.19801758 7.11657227 -2.19801758 7.11657227 -1.82617188 5.89648438 C-1.22520262 3.92860466 -0.6136095 1.96397505 0 0 Z " fill="#5E5E5E" transform="translate(422,206)"/>
<path d="M0 0 C6.47377329 3.03843059 11.00911257 8.54822855 14 15 C13.67 15.66 13.34 16.32 13 17 C8.60280936 11.37992202 4.25906017 5.72554976 0 0 Z " fill="#737373" transform="translate(396,117)"/>
<path d="M0 0 C4.29 0.33 8.58 0.66 13 1 C13 1.66 13 2.32 13 3 C15.31 3.33 17.62 3.66 20 4 C15.60155678 5.37344385 12.07495445 4.24307502 7.75 3.0625 C7.00492188 2.86720703 6.25984375 2.67191406 5.4921875 2.47070312 C3.65920614 1.98895802 1.82928182 1.49560775 0 1 C0 0.67 0 0.34 0 0 Z " fill="#C7C7C7" transform="translate(125,312)"/>
<path d="M0 0 C1.216875 0.28875 2.43375 0.5775 3.6875 0.875 C9.74164275 2.22896164 15.86368138 3.10847921 22 4 C22 4.33 22 4.66 22 5 C15.8894576 5.11269443 10.04829486 4.89604368 4 4 C4 3.34 4 2.68 4 2 C2.68 1.34 1.36 0.68 0 0 Z " fill="#6F6F6F" transform="translate(134,270)"/>
<path d="M0 0 C1.90747183 2.86120775 3.00353706 5.35254993 4.1875 8.5625 C4.55230469 9.53316406 4.91710937 10.50382813 5.29296875 11.50390625 C6 14 6 14 5 16 C4.67 15.01 4.34 14.02 4 13 C3.34 13 2.68 13 2 13 C-0.24828052 8.50343896 -0.16682272 4.92127034 0 0 Z " fill="#656565" transform="translate(90,217)"/>
<path d="M0 0 C3.92734211 3.77024843 7.44406161 7.88470051 11 12 C6.67750434 12 5.11604454 9.85084926 2 7 C0 4 0 4 0 0 Z " fill="#616161" transform="translate(101,242)"/>
<path d="M0 0 C-5.16830006 3.1889511 -10.18738629 5.26017005 -16 7 C-12.13277659 2.84631559 -6.01840203 -3.00920101 0 0 Z " fill="#818181" transform="translate(112,69)"/>
<path d="M0 0 C1 3 1 3 -0.21484375 5.48046875 C-0.78332031 6.37378906 -1.35179687 7.26710938 -1.9375 8.1875 C-2.50339844 9.08855469 -3.06929688 9.98960937 -3.65234375 10.91796875 C-4.09707031 11.60503906 -4.54179687 12.29210937 -5 13 C-5.93423645 9.98968256 -6.04449911 9.13349732 -5 6 C-4.01 5.34 -3.02 4.68 -2 4 C-0.80767387 1.94996045 -0.80767387 1.94996045 0 0 Z " fill="#757575" transform="translate(453,251)"/>
<path d="M0 0 C1.18414294 3.55242882 0.69535532 4.69830562 -0.4375 8.1875 C-0.72496094 9.08855469 -1.01242188 9.98960937 -1.30859375 10.91796875 C-1.53675781 11.60503906 -1.76492187 12.29210937 -2 13 C-2.66 13 -3.32 13 -4 13 C-3.40895235 8.15340923 -2.02055843 4.39251833 0 0 Z " fill="#747474" transform="translate(91,151)"/>
<path d="M0 0 C0.66 0 1.32 0 2 0 C5.44419134 9.41002278 5.44419134 9.41002278 5 14 C2.42853943 11.42853943 2.19882003 9.3949583 1.375 5.875 C1.11460938 4.77929688 0.85421875 3.68359375 0.5859375 2.5546875 C0.39257812 1.71164063 0.19921875 0.86859375 0 0 Z " fill="#C9C9C9" transform="translate(49,230)"/>
<path d="M0 0 C0.33 0.66 0.66 1.32 1 2 C-0.375 4 -0.375 4 -2 6 C-2.66 6 -3.32 6 -4 6 C-4 6.66 -4 7.32 -4 8 C-5.32 8.33 -6.64 8.66 -8 9 C-6.4169423 4.7257442 -3.49431596 2.73468206 0 0 Z " fill="#C1C1C1" transform="translate(76,95)"/>
<path d="M0 0 C0.66 0.33 1.32 0.66 2 1 C-0.25740623 3.33524782 -2.2805761 5.18705073 -5 7 C-5.99 6.67 -6.98 6.34 -8 6 C-7.01 5.67 -6.02 5.34 -5 5 C-5 4.34 -5 3.68 -5 3 C-2.625 1.3125 -2.625 1.3125 0 0 Z " fill="#9A9A9A" transform="translate(123,108)"/>
<path d="M0 0 C4.24822374 0.47202486 6.19989709 2.96655518 9 6 C8.67 6.66 8.34 7.32 8 8 C3.96615872 5.92856799 2.07143201 4.03384128 0 0 Z " fill="#777777" transform="translate(110,255)"/>
<path d="M0 0 C0.33 0.66 0.66 1.32 1 2 C-1.35968744 4.09749995 -2.54616994 4.96905704 -5.75 5.1875 C-6.86375 5.0946875 -6.86375 5.0946875 -8 5 C-5.47211993 2.20127563 -3.79588866 0.54226981 0 0 Z " fill="#909090" transform="translate(394,260)"/>
<path d="M0 0 C-3.66291938 2.47785723 -6.6109185 3.48964169 -11 4 C-8.32997607 0.73663741 -4.08378642 -2.04189321 0 0 Z " fill="#D3D3D3" transform="translate(401,306)"/>
<path d="" fill="#000000" transform="translate(0,0)"/>
<path d="" fill="#000000" transform="translate(0,0)"/>
<path d="" fill="#000000" transform="translate(0,0)"/>
<path d="" fill="#000000" transform="translate(0,0)"/>
<path d="" fill="#000000" transform="translate(0,0)"/>
<path d="" fill="#000000" transform="translate(0,0)"/>
<path d="" fill="#000000" transform="translate(0,0)"/>
<path d="" fill="#000000" transform="translate(0,0)"/>
<path d="" fill="#000000" transform="translate(0,0)"/>
<path d="" fill="#000000" transform="translate(0,0)"/>
<path d="" fill="#000000" transform="translate(0,0)"/>
<path d="" fill="#000000" transform="translate(0,0)"/>
<path d="" fill="#000000" transform="translate(0,0)"/>
<path d="" fill="#000000" transform="translate(0,0)"/>
<path d="" fill="#000000" transform="translate(0,0)"/>
<path d="" fill="#000000" transform="translate(0,0)"/>
<path d="" fill="#000000" transform="translate(0,0)"/>
<path d="" fill="#000000" transform="translate(0,0)"/>
<path d="" fill="#000000" transform="translate(0,0)"/>
<path d="" fill="#000000" transform="translate(0,0)"/>
<path d="" fill="#000000" transform="translate(0,0)"/>
<path d="" fill="#000000" transform="translate(0,0)"/>
<path d="" fill="#000000" transform="translate(0,0)"/>
<path d="" fill="#000000" transform="translate(0,0)"/>
<path d="" fill="#000000" transform="translate(0,0)"/>
<path d="" fill="#000000" transform="translate(0,0)"/>
<path d="" fill="#000000" transform="translate(0,0)"/>
<path d="" fill="#000000" transform="translate(0,0)"/>
<path d="" fill="#000000" transform="translate(0,0)"/>
<path d="" fill="#000000" transform="translate(0,0)"/>
<path d="" fill="#000000" transform="translate(0,0)"/>
<path d="" fill="#000000" transform="translate(0,0)"/>
<path d="" fill="#000000" transform="translate(0,0)"/>
<path d="" fill="#000000" transform="translate(0,0)"/>
<path d="" fill="#000000" transform="translate(0,0)"/>
<path d="" fill="#000000" transform="translate(0,0)"/>
<path d="" fill="#000000" transform="translate(0,0)"/>
<path d="" fill="#000000" transform="translate(0,0)"/>
<path d="" fill="#000000" transform="translate(0,0)"/>
<path d="" fill="#000000" transform="translate(0,0)"/>
<path d="" fill="#000000" transform="translate(0,0)"/>
<path d="" fill="#000000" transform="translate(0,0)"/>
<path d="" fill="#000000" transform="translate(0,0)"/>
<path d="" fill="#000000" transform="translate(0,0)"/>
<path d="" fill="#000000" transform="translate(0,0)"/>
<path d="" fill="#000000" transform="translate(0,0)"/>
<path d="" fill="#000000" transform="translate(0,0)"/>
<path d="" fill="#000000" transform="translate(0,0)"/>
<path d="" fill="#000000" transform="translate(0,0)"/>
<path d="" fill="#000000" transform="translate(0,0)"/>
<path d="" fill="#000000" transform="translate(0,0)"/>
<path d="" fill="#000000" transform="translate(0,0)"/>
<path d="" fill="#000000" transform="translate(0,0)"/>
<path d="" fill="#000000" transform="translate(0,0)"/>
<path d="" fill="#000000" transform="translate(0,0)"/>
<path d="" fill="#000000" transform="translate(0,0)"/>
<path d="" fill="#000000" transform="translate(0,0)"/>
<path d="" fill="#000000" transform="translate(0,0)"/>
</svg>
